<svg xmlns="http://www.w3.org/2000/svg" width="980" height="820" viewBox="0 0 980 820">
<rect width="100%" height="100%" fill="#FFFFFF"/>
<style><![CDATA[
text{font-family:Arial, Helvetica, sans-serif;}
.title{font-size:36px;font-weight:500;fill:#111827;}
.axis{font-size:24px;fill:#111827;}
.tick{font-size:22px;fill:#111827;}
.num{font-size:34px;font-weight:700;}
.bar{font-size:18px;fill:#374151;}
.source{font-size:16px;fill:#6B7280;}
]]></style>
<text x="490.0" y="64" text-anchor="middle" class="title">Confusion Matrix</text>
<text x="485" y="122" text-anchor="middle" class="axis">Prediction</text>
<text x="78" y="415" text-anchor="middle" class="axis" transform="rotate(-90 78,415)">Actual</text>
<text x="367.5" y="152" text-anchor="middle" class="tick">NO_MATCH</text>
<text x="602.5" y="152" text-anchor="middle" class="tick">MATCH</text>
<text x="222" y="305.5" text-anchor="end" class="tick">NO_MATCH</text>
<text x="222" y="540.5" text-anchor="end" class="tick">MATCH</text>
<rect x="250" y="180" width="235" height="235" fill="#124179" stroke="#111827" stroke-width="2"/>
<text x="367.5" y="309.5" text-anchor="middle" class="num" fill="#FFFFFF">1351</text>
<rect x="485" y="180" width="235" height="235" fill="#d3e1ed" stroke="#111827" stroke-width="2"/>
<text x="602.5" y="309.5" text-anchor="middle" class="num" fill="#111827">149</text>
<rect x="250" y="415" width="235" height="235" fill="#dae7f1" stroke="#111827" stroke-width="2"/>
<text x="367.5" y="544.5" text-anchor="middle" class="num" fill="#111827">107</text>
<rect x="485" y="415" width="235" height="235" fill="#0b3b75" stroke="#111827" stroke-width="2"/>
<text x="602.5" y="544.5" text-anchor="middle" class="num" fill="#FFFFFF">1393</text>
<rect x="250" y="180" width="470" height="470" fill="none" stroke="#111827" stroke-width="2.2"/>
<rect x="790" y="180.0" width="28" height="6.9" fill="#0b3b75"/>
<rect x="790" y="185.9" width="28" height="6.9" fill="#0e3d77"/>
<rect x="790" y="191.8" width="28" height="6.9" fill="#114078"/>
<rect x="790" y="197.6" width="28" height="6.9" fill="#14427a"/>
<rect x="790" y="203.5" width="28" height="6.9" fill="#16447c"/>
<rect x="790" y="209.4" width="28" height="6.9" fill="#19477d"/>
<rect x="790" y="215.2" width="28" height="6.9" fill="#1c497f"/>
<rect x="790" y="221.1" width="28" height="6.9" fill="#1f4b81"/>
<rect x="790" y="227.0" width="28" height="6.9" fill="#224e83"/>
<rect x="790" y="232.9" width="28" height="6.9" fill="#255084"/>
<rect x="790" y="238.8" width="28" height="6.9" fill="#275386"/>
<rect x="790" y="244.6" width="28" height="6.9" fill="#2a5588"/>
<rect x="790" y="250.5" width="28" height="6.9" fill="#2d5789"/>
<rect x="790" y="256.4" width="28" height="6.9" fill="#305a8b"/>
<rect x="790" y="262.2" width="28" height="6.9" fill="#335c8d"/>
<rect x="790" y="268.1" width="28" height="6.9" fill="#365e8e"/>
<rect x="790" y="274.0" width="28" height="6.9" fill="#386190"/>
<rect x="790" y="279.9" width="28" height="6.9" fill="#3b6392"/>
<rect x="790" y="285.8" width="28" height="6.9" fill="#3e6594"/>
<rect x="790" y="291.6" width="28" height="6.9" fill="#416895"/>
<rect x="790" y="297.5" width="28" height="6.9" fill="#446a97"/>
<rect x="790" y="303.4" width="28" height="6.9" fill="#476c99"/>
<rect x="790" y="309.2" width="28" height="6.9" fill="#496f9a"/>
<rect x="790" y="315.1" width="28" height="6.9" fill="#4c719c"/>
<rect x="790" y="321.0" width="28" height="6.9" fill="#4f749e"/>
<rect x="790" y="326.9" width="28" height="6.9" fill="#52769f"/>
<rect x="790" y="332.8" width="28" height="6.9" fill="#5578a1"/>
<rect x="790" y="338.6" width="28" height="6.9" fill="#587ba3"/>
<rect x="790" y="344.5" width="28" height="6.9" fill="#5a7da4"/>
<rect x="790" y="350.4" width="28" height="6.9" fill="#5d7fa6"/>
<rect x="790" y="356.2" width="28" height="6.9" fill="#6082a8"/>
<rect x="790" y="362.1" width="28" height="6.9" fill="#6384aa"/>
<rect x="790" y="368.0" width="28" height="6.9" fill="#6686ab"/>
<rect x="790" y="373.9" width="28" height="6.9" fill="#6989ad"/>
<rect x="790" y="379.8" width="28" height="6.9" fill="#6b8baf"/>
<rect x="790" y="385.6" width="28" height="6.9" fill="#6e8db0"/>
<rect x="790" y="391.5" width="28" height="6.9" fill="#7190b2"/>
<rect x="790" y="397.4" width="28" height="6.9" fill="#7492b4"/>
<rect x="790" y="403.2" width="28" height="6.9" fill="#7794b5"/>
<rect x="790" y="409.1" width="28" height="6.9" fill="#7a97b7"/>
<rect x="790" y="415.0" width="28" height="6.9" fill="#7c99b9"/>
<rect x="790" y="420.9" width="28" height="6.9" fill="#7f9cbb"/>
<rect x="790" y="426.8" width="28" height="6.9" fill="#829ebc"/>
<rect x="790" y="432.6" width="28" height="6.9" fill="#85a0be"/>
<rect x="790" y="438.5" width="28" height="6.9" fill="#88a3c0"/>
<rect x="790" y="444.4" width="28" height="6.9" fill="#8ba5c1"/>
<rect x="790" y="450.2" width="28" height="6.9" fill="#8da7c3"/>
<rect x="790" y="456.1" width="28" height="6.9" fill="#90aac5"/>
<rect x="790" y="462.0" width="28" height="6.9" fill="#93acc6"/>
<rect x="790" y="467.9" width="28" height="6.9" fill="#96aec8"/>
<rect x="790" y="473.8" width="28" height="6.9" fill="#99b1ca"/>
<rect x="790" y="479.6" width="28" height="6.9" fill="#9cb3cc"/>
<rect x="790" y="485.5" width="28" height="6.9" fill="#9eb5cd"/>
<rect x="790" y="491.4" width="28" height="6.9" fill="#a1b8cf"/>
<rect x="790" y="497.2" width="28" height="6.9" fill="#a4bad1"/>
<rect x="790" y="503.1" width="28" height="6.9" fill="#a7bcd2"/>
<rect x="790" y="509.0" width="28" height="6.9" fill="#aabfd4"/>
<rect x="790" y="514.9" width="28" height="6.9" fill="#adc1d6"/>
<rect x="790" y="520.8" width="28" height="6.9" fill="#afc4d7"/>
<rect x="790" y="526.6" width="28" height="6.9" fill="#b2c6d9"/>
<rect x="790" y="532.5" width="28" height="6.9" fill="#b5c8db"/>
<rect x="790" y="538.4" width="28" height="6.9" fill="#b8cbdc"/>
<rect x="790" y="544.2" width="28" height="6.9" fill="#bbcdde"/>
<rect x="790" y="550.1" width="28" height="6.9" fill="#becfe0"/>
<rect x="790" y="556.0" width="28" height="6.9" fill="#c0d2e2"/>
<rect x="790" y="561.9" width="28" height="6.9" fill="#c3d4e3"/>
<rect x="790" y="567.8" width="28" height="6.9" fill="#c6d6e5"/>
<rect x="790" y="573.6" width="28" height="6.9" fill="#c9d9e7"/>
<rect x="790" y="579.5" width="28" height="6.9" fill="#ccdbe8"/>
<rect x="790" y="585.4" width="28" height="6.9" fill="#cfddea"/>
<rect x="790" y="591.2" width="28" height="6.9" fill="#d1e0ec"/>
<rect x="790" y="597.1" width="28" height="6.9" fill="#d4e2ed"/>
<rect x="790" y="603.0" width="28" height="6.9" fill="#d7e5ef"/>
<rect x="790" y="608.9" width="28" height="6.9" fill="#dae7f1"/>
<rect x="790" y="614.8" width="28" height="6.9" fill="#dde9f3"/>
<rect x="790" y="620.6" width="28" height="6.9" fill="#e0ecf4"/>
<rect x="790" y="626.5" width="28" height="6.9" fill="#e2eef6"/>
<rect x="790" y="632.4" width="28" height="6.9" fill="#e5f0f8"/>
<rect x="790" y="638.2" width="28" height="6.9" fill="#e8f3f9"/>
<rect x="790" y="644.1" width="28" height="6.9" fill="#ebf5fb"/>
<rect x="790" y="180" width="28" height="470" fill="none" stroke="#374151"/>
<line x1="818" y1="650.0" x2="825" y2="650.0" stroke="#374151"/>
<text x="832" y="656.0" class="bar">0</text>
<line x1="818" y1="531.9" x2="825" y2="531.9" stroke="#374151"/>
<text x="832" y="537.9" class="bar">350</text>
<line x1="818" y1="413.8" x2="825" y2="413.8" stroke="#374151"/>
<text x="832" y="419.8" class="bar">700</text>
<line x1="818" y1="295.7" x2="825" y2="295.7" stroke="#374151"/>
<text x="832" y="301.7" class="bar">1050</text>
<line x1="818" y1="177.6" x2="825" y2="177.6" stroke="#374151"/>
<text x="832" y="183.6" class="bar">1400</text>
<text x="940" y="792" text-anchor="end" class="source">Sumber: evaluasi model SPC pada data validasi</text>
</svg>