<svg xmlns="http://www.w3.org/2000/svg" width="1240" height="980" viewBox="0 0 1240 980">
<rect width="100%" height="100%" fill="#ffffff"/>
<style>
text{font-family:Arial, Helvetica, sans-serif;}
.title{font-size:28px;font-weight:800;fill:#111827;}
.sub{font-size:14px;fill:#475569;}
.axis{font-size:16px;font-weight:800;fill:#111827;}
.tick{font-size:14px;font-weight:800;fill:#111827;}
.num{font-size:14px;font-weight:800;}
.source{font-size:12px;fill:#475569;}
</style>
<text x="620.0" y="46" text-anchor="middle" class="title">Confusion Matrix NER</text>
<text x="620.0" y="78" text-anchor="middle" class="sub">Level entitas: label B- dan I- digabung, token O tidak ditampilkan</text>
<text x="620.0" y="102" text-anchor="middle" class="sub">Entitas waktu dan tanggal muat ditampilkan sebagai satu kelas: Tgl/Jam Muat</text>
<text x="596.0" y="145" text-anchor="middle" class="axis">Prediksi</text>
<text x="78" y="586.0" text-anchor="middle" class="axis" transform="rotate(-90 78 586.0)">Label Sebenarnya</text>
<text x="284.0" y="191" text-anchor="middle" class="tick">Tujuan</text>
<text x="362.0" y="191" text-anchor="middle" class="tick">Driver</text>
<text x="440.0" y="183" text-anchor="middle" class="tick"><tspan x="440.0" dy="0">Tgl/Jam</tspan><tspan x="440.0" dy="17">Muat</tspan></text>
<text x="518.0" y="191" text-anchor="middle" class="tick">Pickup</text>
<text x="596.0" y="191" text-anchor="middle" class="tick">No HP</text>
<text x="674.0" y="191" text-anchor="middle" class="tick">No. Plat</text>
<text x="752.0" y="191" text-anchor="middle" class="tick">Tgl RO</text>
<text x="830.0" y="183" text-anchor="middle" class="tick"><tspan x="830.0" dy="0">Jumlah</tspan><tspan x="830.0" dy="17">Unit</tspan></text>
<text x="908.0" y="183" text-anchor="middle" class="tick"><tspan x="908.0" dy="0">Tipe</tspan><tspan x="908.0" dy="17">Truk</tspan></text>
<text x="223" y="279.0" text-anchor="end" class="tick">Tujuan</text>
<text x="223" y="357.0" text-anchor="end" class="tick">Driver</text>
<text x="223" y="435.0" text-anchor="end" class="tick">Tgl/Jam Muat</text>
<text x="223" y="513.0" text-anchor="end" class="tick">Pickup</text>
<text x="223" y="591.0" text-anchor="end" class="tick">No HP</text>
<text x="223" y="669.0" text-anchor="end" class="tick">No. Plat</text>
<text x="223" y="747.0" text-anchor="end" class="tick">Tgl RO</text>
<text x="223" y="825.0" text-anchor="end" class="tick">Jumlah Unit</text>
<text x="223" y="903.0" text-anchor="end" class="tick">Tipe Truk</text>
<rect x="245" y="235" width="78" height="78" fill="#2546b2" stroke="#111827" stroke-width="1.15"/>
<text x="284.0" y="279.0" text-anchor="middle" class="num" fill="#ffffff">6.139</text>
<rect x="323" y="235" width="78" height="78" fill="#f8fafc" stroke="#111827" stroke-width="1.15"/>
<rect x="401" y="235" width="78" height="78" fill="#f8fafc" stroke="#111827" stroke-width="1.15"/>
<rect x="479" y="235" width="78" height="78" fill="#bfceee" stroke="#111827" stroke-width="1.15"/>
<text x="518.0" y="279.0" text-anchor="middle" class="num" fill="#111827">4</text>
<rect x="557" y="235" width="78" height="78" fill="#f8fafc" stroke="#111827" stroke-width="1.15"/>
<rect x="635" y="235" width="78" height="78" fill="#f8fafc" stroke="#111827" stroke-width="1.15"/>
<rect x="713" y="235" width="78" height="78" fill="#f8fafc" stroke="#111827" stroke-width="1.15"/>
<rect x="791" y="235" width="78" height="78" fill="#f8fafc" stroke="#111827" stroke-width="1.15"/>
<rect x="869" y="235" width="78" height="78" fill="#f8fafc" stroke="#111827" stroke-width="1.15"/>
<rect x="245" y="313" width="78" height="78" fill="#f8fafc" stroke="#111827" stroke-width="1.15"/>
<rect x="323" y="313" width="78" height="78" fill="#3957b9" stroke="#111827" stroke-width="1.15"/>
<text x="362.0" y="357.0" text-anchor="middle" class="num" fill="#ffffff">2.483</text>
<rect x="401" y="313" width="78" height="78" fill="#f8fafc" stroke="#111827" stroke-width="1.15"/>
<rect x="479" y="313" width="78" height="78" fill="#f8fafc" stroke="#111827" stroke-width="1.15"/>
<rect x="557" y="313" width="78" height="78" fill="#f8fafc" stroke="#111827" stroke-width="1.15"/>
<rect x="635" y="313" width="78" height="78" fill="#f8fafc" stroke="#111827" stroke-width="1.15"/>
<rect x="713" y="313" width="78" height="78" fill="#f8fafc" stroke="#111827" stroke-width="1.15"/>
<rect x="791" y="313" width="78" height="78" fill="#f8fafc" stroke="#111827" stroke-width="1.15"/>
<rect x="869" y="313" width="78" height="78" fill="#f8fafc" stroke="#111827" stroke-width="1.15"/>
<rect x="245" y="391" width="78" height="78" fill="#f8fafc" stroke="#111827" stroke-width="1.15"/>
<rect x="323" y="391" width="78" height="78" fill="#f8fafc" stroke="#111827" stroke-width="1.15"/>
<rect x="401" y="391" width="78" height="78" fill="#3050b6" stroke="#111827" stroke-width="1.15"/>
<text x="440.0" y="435.0" text-anchor="middle" class="num" fill="#ffffff">3.742</text>
<rect x="479" y="391" width="78" height="78" fill="#f8fafc" stroke="#111827" stroke-width="1.15"/>
<rect x="557" y="391" width="78" height="78" fill="#f8fafc" stroke="#111827" stroke-width="1.15"/>
<rect x="635" y="391" width="78" height="78" fill="#f8fafc" stroke="#111827" stroke-width="1.15"/>
<rect x="713" y="391" width="78" height="78" fill="#f8fafc" stroke="#111827" stroke-width="1.15"/>
<rect x="791" y="391" width="78" height="78" fill="#f8fafc" stroke="#111827" stroke-width="1.15"/>
<rect x="869" y="391" width="78" height="78" fill="#f8fafc" stroke="#111827" stroke-width="1.15"/>
<rect x="245" y="469" width="78" height="78" fill="#b5c5ea" stroke="#111827" stroke-width="1.15"/>
<text x="284.0" y="513.0" text-anchor="middle" class="num" fill="#111827">7</text>
<rect x="323" y="469" width="78" height="78" fill="#f8fafc" stroke="#111827" stroke-width="1.15"/>
<rect x="401" y="469" width="78" height="78" fill="#f8fafc" stroke="#111827" stroke-width="1.15"/>
<rect x="479" y="469" width="78" height="78" fill="#3b5aba" stroke="#111827" stroke-width="1.15"/>
<text x="518.0" y="513.0" text-anchor="middle" class="num" fill="#ffffff">2.203</text>
<rect x="557" y="469" width="78" height="78" fill="#f8fafc" stroke="#111827" stroke-width="1.15"/>
<rect x="635" y="469" width="78" height="78" fill="#f8fafc" stroke="#111827" stroke-width="1.15"/>
<rect x="713" y="469" width="78" height="78" fill="#f8fafc" stroke="#111827" stroke-width="1.15"/>
<rect x="791" y="469" width="78" height="78" fill="#f8fafc" stroke="#111827" stroke-width="1.15"/>
<rect x="869" y="469" width="78" height="78" fill="#f8fafc" stroke="#111827" stroke-width="1.15"/>
<rect x="245" y="547" width="78" height="78" fill="#f8fafc" stroke="#111827" stroke-width="1.15"/>
<rect x="323" y="547" width="78" height="78" fill="#f8fafc" stroke="#111827" stroke-width="1.15"/>
<rect x="401" y="547" width="78" height="78" fill="#f8fafc" stroke="#111827" stroke-width="1.15"/>
<rect x="479" y="547" width="78" height="78" fill="#f8fafc" stroke="#111827" stroke-width="1.15"/>
<rect x="557" y="547" width="78" height="78" fill="#1e40af" stroke="#111827" stroke-width="1.15"/>
<text x="596.0" y="591.0" text-anchor="middle" class="num" fill="#ffffff">8.461</text>
<rect x="635" y="547" width="78" height="78" fill="#d3e0f6" stroke="#111827" stroke-width="1.15"/>
<text x="674.0" y="591.0" text-anchor="middle" class="num" fill="#111827">1</text>
<rect x="713" y="547" width="78" height="78" fill="#f8fafc" stroke="#111827" stroke-width="1.15"/>
<rect x="791" y="547" width="78" height="78" fill="#f8fafc" stroke="#111827" stroke-width="1.15"/>
<rect x="869" y="547" width="78" height="78" fill="#f8fafc" stroke="#111827" stroke-width="1.15"/>
<rect x="245" y="625" width="78" height="78" fill="#f8fafc" stroke="#111827" stroke-width="1.15"/>
<rect x="323" y="625" width="78" height="78" fill="#f8fafc" stroke="#111827" stroke-width="1.15"/>
<rect x="401" y="625" width="78" height="78" fill="#f8fafc" stroke="#111827" stroke-width="1.15"/>
<rect x="479" y="625" width="78" height="78" fill="#f8fafc" stroke="#111827" stroke-width="1.15"/>
<rect x="557" y="625" width="78" height="78" fill="#f8fafc" stroke="#111827" stroke-width="1.15"/>
<rect x="635" y="625" width="78" height="78" fill="#2b4cb4" stroke="#111827" stroke-width="1.15"/>
<text x="674.0" y="669.0" text-anchor="middle" class="num" fill="#ffffff">4.573</text>
<rect x="713" y="625" width="78" height="78" fill="#f8fafc" stroke="#111827" stroke-width="1.15"/>
<rect x="791" y="625" width="78" height="78" fill="#f8fafc" stroke="#111827" stroke-width="1.15"/>
<rect x="869" y="625" width="78" height="78" fill="#f8fafc" stroke="#111827" stroke-width="1.15"/>
<rect x="245" y="703" width="78" height="78" fill="#f8fafc" stroke="#111827" stroke-width="1.15"/>
<rect x="323" y="703" width="78" height="78" fill="#f8fafc" stroke="#111827" stroke-width="1.15"/>
<rect x="401" y="703" width="78" height="78" fill="#f8fafc" stroke="#111827" stroke-width="1.15"/>
<rect x="479" y="703" width="78" height="78" fill="#f8fafc" stroke="#111827" stroke-width="1.15"/>
<rect x="557" y="703" width="78" height="78" fill="#f8fafc" stroke="#111827" stroke-width="1.15"/>
<rect x="635" y="703" width="78" height="78" fill="#f8fafc" stroke="#111827" stroke-width="1.15"/>
<rect x="713" y="703" width="78" height="78" fill="#2c4db5" stroke="#111827" stroke-width="1.15"/>
<text x="752.0" y="747.0" text-anchor="middle" class="num" fill="#ffffff">4.361</text>
<rect x="791" y="703" width="78" height="78" fill="#f8fafc" stroke="#111827" stroke-width="1.15"/>
<rect x="869" y="703" width="78" height="78" fill="#f8fafc" stroke="#111827" stroke-width="1.15"/>
<rect x="245" y="781" width="78" height="78" fill="#f8fafc" stroke="#111827" stroke-width="1.15"/>
<rect x="323" y="781" width="78" height="78" fill="#f8fafc" stroke="#111827" stroke-width="1.15"/>
<rect x="401" y="781" width="78" height="78" fill="#f8fafc" stroke="#111827" stroke-width="1.15"/>
<rect x="479" y="781" width="78" height="78" fill="#f8fafc" stroke="#111827" stroke-width="1.15"/>
<rect x="557" y="781" width="78" height="78" fill="#f8fafc" stroke="#111827" stroke-width="1.15"/>
<rect x="635" y="781" width="78" height="78" fill="#f8fafc" stroke="#111827" stroke-width="1.15"/>
<rect x="713" y="781" width="78" height="78" fill="#f8fafc" stroke="#111827" stroke-width="1.15"/>
<rect x="791" y="781" width="78" height="78" fill="#4f6bc2" stroke="#111827" stroke-width="1.15"/>
<text x="830.0" y="825.0" text-anchor="middle" class="num" fill="#111827">885</text>
<rect x="869" y="781" width="78" height="78" fill="#f8fafc" stroke="#111827" stroke-width="1.15"/>
<rect x="245" y="859" width="78" height="78" fill="#f8fafc" stroke="#111827" stroke-width="1.15"/>
<rect x="323" y="859" width="78" height="78" fill="#f8fafc" stroke="#111827" stroke-width="1.15"/>
<rect x="401" y="859" width="78" height="78" fill="#f8fafc" stroke="#111827" stroke-width="1.15"/>
<rect x="479" y="859" width="78" height="78" fill="#f8fafc" stroke="#111827" stroke-width="1.15"/>
<rect x="557" y="859" width="78" height="78" fill="#f8fafc" stroke="#111827" stroke-width="1.15"/>
<rect x="635" y="859" width="78" height="78" fill="#f8fafc" stroke="#111827" stroke-width="1.15"/>
<rect x="713" y="859" width="78" height="78" fill="#f8fafc" stroke="#111827" stroke-width="1.15"/>
<rect x="791" y="859" width="78" height="78" fill="#f8fafc" stroke="#111827" stroke-width="1.15"/>
<rect x="869" y="859" width="78" height="78" fill="#405ebc" stroke="#111827" stroke-width="1.15"/>
<text x="908.0" y="903.0" text-anchor="middle" class="num" fill="#111827">1.781</text>
<rect x="245" y="235" width="702" height="702" fill="none" stroke="#111827" stroke-width="1.8"/>
<rect x="999" y="235.00" width="24" height="6.85" fill="#1e40af"/>
<rect x="999" y="240.85" width="24" height="6.85" fill="#2041b0"/>
<rect x="999" y="246.70" width="24" height="6.85" fill="#2143b0"/>
<rect x="999" y="252.55" width="24" height="6.85" fill="#2344b1"/>
<rect x="999" y="258.40" width="24" height="6.85" fill="#2546b2"/>
<rect x="999" y="264.25" width="24" height="6.85" fill="#2647b2"/>
<rect x="999" y="270.10" width="24" height="6.85" fill="#2849b3"/>
<rect x="999" y="275.95" width="24" height="6.85" fill="#2a4ab4"/>
<rect x="999" y="281.80" width="24" height="6.85" fill="#2b4cb4"/>
<rect x="999" y="287.65" width="24" height="6.85" fill="#2d4db5"/>
<rect x="999" y="293.50" width="24" height="6.85" fill="#2e4fb5"/>
<rect x="999" y="299.35" width="24" height="6.85" fill="#3050b6"/>
<rect x="999" y="305.20" width="24" height="6.85" fill="#3251b7"/>
<rect x="999" y="311.05" width="24" height="6.85" fill="#3353b7"/>
<rect x="999" y="316.90" width="24" height="6.85" fill="#3554b8"/>
<rect x="999" y="322.75" width="24" height="6.85" fill="#3756b9"/>
<rect x="999" y="328.60" width="24" height="6.85" fill="#3857b9"/>
<rect x="999" y="334.45" width="24" height="6.85" fill="#3a59ba"/>
<rect x="999" y="340.30" width="24" height="6.85" fill="#3c5abb"/>
<rect x="999" y="346.15" width="24" height="6.85" fill="#3d5cbb"/>
<rect x="999" y="352.00" width="24" height="6.85" fill="#3f5dbc"/>
<rect x="999" y="357.85" width="24" height="6.85" fill="#415fbd"/>
<rect x="999" y="363.70" width="24" height="6.85" fill="#4260bd"/>
<rect x="999" y="369.55" width="24" height="6.85" fill="#4461be"/>
<rect x="999" y="375.40" width="24" height="6.85" fill="#4663bf"/>
<rect x="999" y="381.25" width="24" height="6.85" fill="#4764bf"/>
<rect x="999" y="387.10" width="24" height="6.85" fill="#4966c0"/>
<rect x="999" y="392.95" width="24" height="6.85" fill="#4a67c0"/>
<rect x="999" y="398.80" width="24" height="6.85" fill="#4c69c1"/>
<rect x="999" y="404.65" width="24" height="6.85" fill="#4e6ac2"/>
<rect x="999" y="410.50" width="24" height="6.85" fill="#4f6cc2"/>
<rect x="999" y="416.35" width="24" height="6.85" fill="#516dc3"/>
<rect x="999" y="422.20" width="24" height="6.85" fill="#536fc4"/>
<rect x="999" y="428.05" width="24" height="6.85" fill="#5470c4"/>
<rect x="999" y="433.90" width="24" height="6.85" fill="#5671c5"/>
<rect x="999" y="439.75" width="24" height="6.85" fill="#5873c6"/>
<rect x="999" y="445.60" width="24" height="6.85" fill="#5974c6"/>
<rect x="999" y="451.45" width="24" height="6.85" fill="#5b76c7"/>
<rect x="999" y="457.30" width="24" height="6.85" fill="#5d77c8"/>
<rect x="999" y="463.15" width="24" height="6.85" fill="#5e79c8"/>
<rect x="999" y="469.00" width="24" height="6.85" fill="#607ac9"/>
<rect x="999" y="474.85" width="24" height="6.85" fill="#627cca"/>
<rect x="999" y="480.70" width="24" height="6.85" fill="#637dca"/>
<rect x="999" y="486.55" width="24" height="6.85" fill="#657fcb"/>
<rect x="999" y="492.40" width="24" height="6.85" fill="#6780cb"/>
<rect x="999" y="498.25" width="24" height="6.85" fill="#6881cc"/>
<rect x="999" y="504.10" width="24" height="6.85" fill="#6a83cd"/>
<rect x="999" y="509.95" width="24" height="6.85" fill="#6b84cd"/>
<rect x="999" y="515.80" width="24" height="6.85" fill="#6d86ce"/>
<rect x="999" y="521.65" width="24" height="6.85" fill="#6f87cf"/>
<rect x="999" y="527.50" width="24" height="6.85" fill="#7089cf"/>
<rect x="999" y="533.35" width="24" height="6.85" fill="#728ad0"/>
<rect x="999" y="539.20" width="24" height="6.85" fill="#748cd1"/>
<rect x="999" y="545.05" width="24" height="6.85" fill="#758dd1"/>
<rect x="999" y="550.90" width="24" height="6.85" fill="#778fd2"/>
<rect x="999" y="556.75" width="24" height="6.85" fill="#7990d3"/>
<rect x="999" y="562.60" width="24" height="6.85" fill="#7a91d3"/>
<rect x="999" y="568.45" width="24" height="6.85" fill="#7c93d4"/>
<rect x="999" y="574.30" width="24" height="6.85" fill="#7e94d5"/>
<rect x="999" y="580.15" width="24" height="6.85" fill="#7f96d5"/>
<rect x="999" y="586.00" width="24" height="6.85" fill="#8197d6"/>
<rect x="999" y="591.85" width="24" height="6.85" fill="#8299d6"/>
<rect x="999" y="597.70" width="24" height="6.85" fill="#849ad7"/>
<rect x="999" y="603.55" width="24" height="6.85" fill="#869cd8"/>
<rect x="999" y="609.40" width="24" height="6.85" fill="#889dd8"/>
<rect x="999" y="615.25" width="24" height="6.85" fill="#899fd9"/>
<rect x="999" y="621.10" width="24" height="6.85" fill="#8ba0da"/>
<rect x="999" y="626.95" width="24" height="6.85" fill="#8ca1da"/>
<rect x="999" y="632.80" width="24" height="6.85" fill="#8ea3db"/>
<rect x="999" y="638.65" width="24" height="6.85" fill="#90a5dc"/>
<rect x="999" y="644.50" width="24" height="6.85" fill="#92a6dc"/>
<rect x="999" y="650.35" width="24" height="6.85" fill="#93a7dd"/>
<rect x="999" y="656.20" width="24" height="6.85" fill="#95a9de"/>
<rect x="999" y="662.05" width="24" height="6.85" fill="#97abde"/>
<rect x="999" y="667.90" width="24" height="6.85" fill="#98acdf"/>
<rect x="999" y="673.75" width="24" height="6.85" fill="#9aade0"/>
<rect x="999" y="679.60" width="24" height="6.85" fill="#9bafe0"/>
<rect x="999" y="685.45" width="24" height="6.85" fill="#9db0e1"/>
<rect x="999" y="691.30" width="24" height="6.85" fill="#9fb2e2"/>
<rect x="999" y="697.15" width="24" height="6.85" fill="#a1b4e2"/>
<rect x="999" y="703.00" width="24" height="6.85" fill="#a2b5e3"/>
<rect x="999" y="708.85" width="24" height="6.85" fill="#a5b7e4"/>
<rect x="999" y="714.70" width="24" height="6.85" fill="#a6b8e4"/>
<rect x="999" y="720.55" width="24" height="6.85" fill="#a7b9e5"/>
<rect x="999" y="726.40" width="24" height="6.85" fill="#a9bbe6"/>
<rect x="999" y="732.25" width="24" height="6.85" fill="#aabce6"/>
<rect x="999" y="738.10" width="24" height="6.85" fill="#acbde7"/>
<rect x="999" y="743.95" width="24" height="6.85" fill="#aebfe8"/>
<rect x="999" y="749.80" width="24" height="6.85" fill="#b0c1e8"/>
<rect x="999" y="755.65" width="24" height="6.85" fill="#b2c3e9"/>
<rect x="999" y="761.50" width="24" height="6.85" fill="#b2c3e9"/>
<rect x="999" y="767.35" width="24" height="6.85" fill="#b5c5ea"/>
<rect x="999" y="773.20" width="24" height="6.85" fill="#b8c8eb"/>
<rect x="999" y="779.05" width="24" height="6.85" fill="#b8c8eb"/>
<rect x="999" y="784.90" width="24" height="6.85" fill="#bbcbed"/>
<rect x="999" y="790.75" width="24" height="6.85" fill="#bbcbed"/>
<rect x="999" y="796.60" width="24" height="6.85" fill="#bfceee"/>
<rect x="999" y="802.45" width="24" height="6.85" fill="#bfceee"/>
<rect x="999" y="808.30" width="24" height="6.85" fill="#c4d2f0"/>
<rect x="999" y="814.15" width="24" height="6.85" fill="#c4d2f0"/>
<rect x="999" y="820.00" width="24" height="6.85" fill="#c4d2f0"/>
<rect x="999" y="825.85" width="24" height="6.85" fill="#cad8f3"/>
<rect x="999" y="831.70" width="24" height="6.85" fill="#cad8f3"/>
<rect x="999" y="837.55" width="24" height="6.85" fill="#cad8f3"/>
<rect x="999" y="843.40" width="24" height="6.85" fill="#cad8f3"/>
<rect x="999" y="849.25" width="24" height="6.85" fill="#d3e0f6"/>
<rect x="999" y="855.10" width="24" height="6.85" fill="#d3e0f6"/>
<rect x="999" y="860.95" width="24" height="6.85" fill="#d3e0f6"/>
<rect x="999" y="866.80" width="24" height="6.85" fill="#d3e0f6"/>
<rect x="999" y="872.65" width="24" height="6.85" fill="#d3e0f6"/>
<rect x="999" y="878.50" width="24" height="6.85" fill="#d3e0f6"/>
<rect x="999" y="884.35" width="24" height="6.85" fill="#d3e0f6"/>
<rect x="999" y="890.20" width="24" height="6.85" fill="#d3e0f6"/>
<rect x="999" y="896.05" width="24" height="6.85" fill="#d3e0f6"/>
<rect x="999" y="901.90" width="24" height="6.85" fill="#d3e0f6"/>
<rect x="999" y="907.75" width="24" height="6.85" fill="#d3e0f6"/>
<rect x="999" y="913.60" width="24" height="6.85" fill="#d3e0f6"/>
<rect x="999" y="919.45" width="24" height="6.85" fill="#d3e0f6"/>
<rect x="999" y="925.30" width="24" height="6.85" fill="#d3e0f6"/>
<rect x="999" y="931.15" width="24" height="6.85" fill="#d3e0f6"/>
<rect x="999" y="235" width="24" height="702" fill="none" stroke="#94a3b8" stroke-width="1"/>
<text x="1037" y="240" class="sub">8.461</text>
<text x="1037" y="937" class="sub">0</text>
<text x="1009" y="586.0" text-anchor="middle" class="sub" transform="rotate(90 1009 586.0)">Jumlah token entitas</text>
<text x="620.0" y="942" text-anchor="middle" class="source">Sumber: hasil prediksi model NER pada dataset terproses; token O dikeluarkan agar matrix mudah dibaca</text>
</svg>