<svg xmlns="http://www.w3.org/2000/svg" width="1350" height="760" viewBox="0 0 1350 760">
<rect width="100%" height="100%" fill="#FFFFFF"/>
<style><![CDATA[
text{font-family:Arial, Helvetica, sans-serif;}
.title{font-size:38px;font-weight:700;fill:#111827;}
.subtitle{font-size:21px;fill:#6B7280;}
.tick{font-size:17px;fill:#6B7280;}
.axislabel{font-size:19px;fill:#374151;}
.label{font-size:21px;fill:#111827;font-weight:700;}
.value{font-size:22px;fill:#111827;font-weight:700;}
.note{font-size:19px;fill:#374151;}
.source{font-size:17px;fill:#6B7280;}
]]></style>
<text x="675.0" y="54" text-anchor="middle" class="title">Evaluasi Model Named Entity Recognition</text>
<text x="675.0" y="88" text-anchor="middle" class="subtitle">Ringkasan metrik validasi terbaik pada epoch ke-3</text>
<text x="1215" y="132" text-anchor="end" class="note">Validation loss: 0.0181 | Epoch terbaik: 3</text>
<line x1="135" y1="605.0" x2="1215" y2="605.0" stroke="#E5E7EB" stroke-width="1.5"/>
<text x="123" y="611.0" text-anchor="end" class="tick">99.0%</text>
<line x1="135" y1="514.0" x2="1215" y2="514.0" stroke="#E5E7EB" stroke-width="1.5"/>
<text x="123" y="520.0" text-anchor="end" class="tick">99.2%</text>
<line x1="135" y1="423.0" x2="1215" y2="423.0" stroke="#E5E7EB" stroke-width="1.5"/>
<text x="123" y="429.0" text-anchor="end" class="tick">99.4%</text>
<line x1="135" y1="332.0" x2="1215" y2="332.0" stroke="#E5E7EB" stroke-width="1.5"/>
<text x="123" y="338.0" text-anchor="end" class="tick">99.6%</text>
<line x1="135" y1="241.0" x2="1215" y2="241.0" stroke="#E5E7EB" stroke-width="1.5"/>
<text x="123" y="247.0" text-anchor="end" class="tick">99.8%</text>
<line x1="135" y1="150.0" x2="1215" y2="150.0" stroke="#E5E7EB" stroke-width="1.5"/>
<text x="123" y="156.0" text-anchor="end" class="tick">100.0%</text>
<line x1="135" y1="605" x2="1215" y2="605" stroke="#374151" stroke-width="2"/>
<line x1="135" y1="150" x2="135" y2="605" stroke="#374151" stroke-width="2"/>
<rect x="247.0" y="231.1" width="130" height="373.9" fill="#1F4E79"/>
<text x="312.0" y="217.1" text-anchor="middle" class="value">99,82%</text>
<text x="312.0" y="641.0" text-anchor="middle" class="label">Accuracy</text>
<rect x="489.0" y="375.0" width="130" height="230.0" fill="#C55A11"/>
<text x="554.0" y="361.0" text-anchor="middle" class="value">99,51%</text>
<text x="554.0" y="641.0" text-anchor="middle" class="label">Precision</text>
<rect x="731.0" y="225.2" width="130" height="379.8" fill="#548235"/>
<text x="796.0" y="211.2" text-anchor="middle" class="value">99,83%</text>
<text x="796.0" y="641.0" text-anchor="middle" class="label">Recall</text>
<rect x="973.0" y="300.2" width="130" height="304.8" fill="#7030A0"/>
<text x="1038.0" y="286.2" text-anchor="middle" class="value">99,67%</text>
<text x="1038.0" y="641.0" text-anchor="middle" class="label">F1-score</text>
<text x="675.0" y="705" text-anchor="middle" class="axislabel">Metrik evaluasi</text>
<text x="53" y="377.5" transform="rotate(-90 53,377.5)" text-anchor="middle" class="axislabel">Nilai metrik validasi</text>
<text x="1310" y="738" text-anchor="end" class="source">Sumber: models/indobert_NER/checkpoint-500/trainer_state.json</text>
</svg>