<svg xmlns="http://www.w3.org/2000/svg" width="1900" height="1120" viewBox="0 0 1900 1120">
<rect width="100%" height="100%" fill="#FFFFFF"/>
<style><![CDATA[
text{font-family:Arial, Helvetica, sans-serif;}
.title{font-size:42px;font-weight:700;fill:#1F2937;}
.subtitle{font-size:24px;fill:#6B7280;}
.head{font-size:34px;font-weight:700;fill:#1F2937;}
.label{font-size:25px;font-weight:700;fill:#1F2937;}
.desc{font-size:21px;fill:#6B7280;}
.num{font-size:27px;font-weight:700;fill:#1F2937;}
.small{font-size:20px;fill:#6B7280;}
]]></style>
<text x="950.0" y="58" text-anchor="middle" class="title">Distribusi Skenario Dataset Sequence Pair Classification</text>
<text x="950.0" y="98" text-anchor="middle" class="subtitle">Pembagian kasus MATCH dan NO_MATCH berdasarkan kondisi pesanan induk dan pesan susulan</text>
<rect x="70" y="150" width="855.0" height="835" rx="18" fill="#EFF6FF" stroke="#CBD5E1" stroke-width="2"/>
<rect x="975.0" y="150" width="855.0" height="835" rx="18" fill="#FFF7ED" stroke="#CBD5E1" stroke-width="2"/>
<text x="104" y="205" class="head">MATCH - Bisa Dikaitkan ke Pesanan Induk</text>
<text x="1009.0" y="205" class="head">NO_MATCH - Tidak Aman untuk Digabung</text>
<text x="104" y="242" class="small">Total contoh utama: 7.500 data</text>
<text x="1009.0" y="242" class="small">Total contoh utama: 7.500 data</text>
<rect x="98" y="275" width="799.0" height="128" rx="14" fill="#FFFFFF" stroke="#CBD5E1" stroke-width="1.5"/>
<text x="124" y="314" class="label">Susulan mengisi slot kosong</text>
<text x="124" y="345" font-size="20" font-weight="400" fill="#6B7280" font-family="Arial, Helvetica, sans-serif">Pesanan induk belum penuh dan data susulan menambah</text>
<text x="124" y="371" font-size="20" font-weight="400" fill="#6B7280" font-family="Arial, Helvetica, sans-serif">unit baru.</text>
<rect x="124" y="376" width="495.0" height="14" rx="7" fill="#2F5597"/>
<text x="853.0" y="386" text-anchor="end" class="num">5.391</text>
<rect x="98" y="423" width="799.0" height="128" rx="14" fill="#FFFFFF" stroke="#CBD5E1" stroke-width="1.5"/>
<text x="124" y="462" class="label">Resend berisi data lama + unit baru</text>
<text x="124" y="493" font-size="20" font-weight="400" fill="#6B7280" font-family="Arial, Helvetica, sans-serif">Pesan mengulang sebagian unit lama, tetapi masih</text>
<text x="124" y="519" font-size="20" font-weight="400" fill="#6B7280" font-family="Arial, Helvetica, sans-serif">membawa unit baru.</text>
<rect x="124" y="524" width="107.1" height="14" rx="7" fill="#2F5597"/>
<text x="853.0" y="534" text-anchor="end" class="num">1.166</text>
<rect x="98" y="571" width="799.0" height="128" rx="14" fill="#FFFFFF" stroke="#CBD5E1" stroke-width="1.5"/>
<text x="124" y="610" class="label">Duplikat unit lama</text>
<text x="124" y="641" font-size="20" font-weight="400" fill="#6B7280" font-family="Arial, Helvetica, sans-serif">Data susulan sama dengan unit yang sudah pernah</text>
<text x="124" y="667" font-size="20" font-weight="400" fill="#6B7280" font-family="Arial, Helvetica, sans-serif">tercatat.</text>
<rect x="124" y="672" width="86.6" height="14" rx="7" fill="#2F5597"/>
<text x="853.0" y="682" text-anchor="end" class="num">943</text>
<rect x="1003.0" y="275" width="799.0" height="128" rx="14" fill="#FFFFFF" stroke="#CBD5E1" stroke-width="1.5"/>
<text x="1029.0" y="314" class="label">Beda pesanan/konteks order</text>
<text x="1029.0" y="345" font-size="20" font-weight="400" fill="#6B7280" font-family="Arial, Helvetica, sans-serif">Tanggal, lokasi, tujuan, atau tipe unit tidak sesuai</text>
<text x="1029.0" y="371" font-size="20" font-weight="400" fill="#6B7280" font-family="Arial, Helvetica, sans-serif">dengan induk.</text>
<rect x="1029.0" y="376" width="456.3" height="14" rx="7" fill="#C55A11"/>
<text x="1758.0" y="386" text-anchor="end" class="num">4.969</text>
<rect x="1003.0" y="423" width="799.0" height="128" rx="14" fill="#FFFFFF" stroke="#CBD5E1" stroke-width="1.5"/>
<text x="1029.0" y="462" class="label">Melebihi target / order penuh</text>
<text x="1029.0" y="493" font-size="20" font-weight="400" fill="#6B7280" font-family="Arial, Helvetica, sans-serif">Slot pesanan induk sudah tidak cukup untuk digabung.</text>
<rect x="1029.0" y="524" width="112.2" height="14" rx="7" fill="#C55A11"/>
<text x="1758.0" y="534" text-anchor="end" class="num">1.222</text>
<rect x="1003.0" y="571" width="799.0" height="128" rx="14" fill="#FFFFFF" stroke="#CBD5E1" stroke-width="1.5"/>
<text x="1029.0" y="610" class="label">Beda line/rute order</text>
<text x="1029.0" y="641" font-size="20" font-weight="400" fill="#6B7280" font-family="Arial, Helvetica, sans-serif">Susulan terlihat mirip, tetapi masuk ke line/rute yang</text>
<text x="1029.0" y="667" font-size="20" font-weight="400" fill="#6B7280" font-family="Arial, Helvetica, sans-serif">berbeda.</text>
<rect x="1029.0" y="672" width="64.5" height="14" rx="7" fill="#C55A11"/>
<text x="1758.0" y="682" text-anchor="end" class="num">702</text>
<rect x="1003.0" y="719" width="799.0" height="128" rx="14" fill="#FFFFFF" stroke="#CBD5E1" stroke-width="1.5"/>
<text x="1029.0" y="758" class="label">Data susulan belum lengkap</text>
<text x="1029.0" y="789" font-size="20" font-weight="400" fill="#6B7280" font-family="Arial, Helvetica, sans-serif">Pesan belum membawa driver, nopol, atau kontak yang</text>
<text x="1029.0" y="815" font-size="20" font-weight="400" fill="#6B7280" font-family="Arial, Helvetica, sans-serif">cukup.</text>
<rect x="1029.0" y="820" width="55.7" height="14" rx="7" fill="#C55A11"/>
<text x="1758.0" y="830" text-anchor="end" class="num">607</text>
<rect x="70" y="1012" width="1760" height="64" rx="12" fill="#F8FAFC" stroke="#CBD5E1"/>
<text x="98" y="1052" class="small">Makna grafik: label MATCH diberikan pada susulan yang masih relevan dengan induk, sedangkan NO_MATCH diberikan pada susulan yang berbeda konteks, melewati target, salah line, atau belum lengkap.</text>
<text x="1860" y="1096" text-anchor="end" class="small">Sumber: data/chat/processed/SPC/stage2_completion_matcher_dataset.json</text>
</svg>