<svg xmlns="http://www.w3.org/2000/svg" width="1350" height="760" viewBox="0 0 1350 760">
<rect width="100%" height="100%" fill="#FFFFFF"/>
<style><![CDATA[
text{font-family:Arial, Helvetica, sans-serif;}
.title{font-size:36px;font-weight:700;fill:#111827;}
.subtitle{font-size:21px;fill:#6B7280;}
.axislabel{font-size:19px;fill:#374151;}
.tick{font-size:17px;fill:#6B7280;}
.note{font-size:18px;fill:#374151;}
.source{font-size:17px;fill:#6B7280;}
]]></style>
<text x="675.0" y="52" text-anchor="middle" class="title">Kurva Validation Loss Model SPC</text>
<text x="675.0" y="86" text-anchor="middle" class="subtitle">Nilai validation loss pada data validasi per epoch</text>

<line x1="150" y1="610.0" x2="1230" y2="610.0" stroke="#E5E7EB" stroke-width="1.5"/>
<text x="138" y="616.0" text-anchor="end" class="tick">0.25</text>
<line x1="150" y1="518.0" x2="1230" y2="518.0" stroke="#E5E7EB" stroke-width="1.5"/>
<text x="138" y="524.0" text-anchor="end" class="tick">0.30</text>
<line x1="150" y1="426.0" x2="1230" y2="426.0" stroke="#E5E7EB" stroke-width="1.5"/>
<text x="138" y="432.0" text-anchor="end" class="tick">0.35</text>
<line x1="150" y1="334.0" x2="1230" y2="334.0" stroke="#E5E7EB" stroke-width="1.5"/>
<text x="138" y="340.0" text-anchor="end" class="tick">0.40</text>
<line x1="150" y1="242.0" x2="1230" y2="242.0" stroke="#E5E7EB" stroke-width="1.5"/>
<text x="138" y="248.0" text-anchor="end" class="tick">0.45</text>
<line x1="150" y1="150.0" x2="1230" y2="150.0" stroke="#E5E7EB" stroke-width="1.5"/>
<text x="138" y="156.0" text-anchor="end" class="tick">0.50</text>
<line x1="150.0" y1="150" x2="150.0" y2="610" stroke="#E5E7EB" stroke-width="1"/>
<text x="150.0" y="640" text-anchor="middle" class="tick">1</text>
<line x1="420.0" y1="150" x2="420.0" y2="610" stroke="#E5E7EB" stroke-width="1"/>
<text x="420.0" y="640" text-anchor="middle" class="tick">2</text>
<line x1="690.0" y1="150" x2="690.0" y2="610" stroke="#E5E7EB" stroke-width="1"/>
<text x="690.0" y="640" text-anchor="middle" class="tick">3</text>
<line x1="960.0" y1="150" x2="960.0" y2="610" stroke="#E5E7EB" stroke-width="1"/>
<text x="960.0" y="640" text-anchor="middle" class="tick">4</text>
<line x1="1230.0" y1="150" x2="1230.0" y2="610" stroke="#E5E7EB" stroke-width="1"/>
<text x="1230.0" y="640" text-anchor="middle" class="tick">5</text>
<line x1="150" y1="610" x2="1230" y2="610" stroke="#374151" stroke-width="2"/>
<line x1="150" y1="150" x2="150" y2="610" stroke="#374151" stroke-width="2"/>
<polyline points="150.0,200.3 420.0,534.0 690.0,474.9 960.0,470.0 1230.0,332.2" fill="none" stroke="#C55A11" stroke-width="3.4"/>
<circle cx="150.0" cy="200.3" r="5" fill="#C55A11" stroke="#FFFFFF" stroke-width="1.5"/>
<circle cx="420.0" cy="534.0" r="5" fill="#C55A11" stroke="#FFFFFF" stroke-width="1.5"/>
<circle cx="690.0" cy="474.9" r="5" fill="#C55A11" stroke="#FFFFFF" stroke-width="1.5"/>
<circle cx="960.0" cy="470.0" r="5" fill="#C55A11" stroke="#FFFFFF" stroke-width="1.5"/>
<circle cx="1230.0" cy="332.2" r="5" fill="#C55A11" stroke="#FFFFFF" stroke-width="1.5"/>
<line x1="960.0" y1="150" x2="960.0" y2="610" stroke="#EF4444" stroke-width="2" stroke-dasharray="8 7"/>
<rect x="972.0" y="156" width="178" height="35" rx="6" fill="#FFFFFF" stroke="#FCA5A5"/>
<text x="984.0" y="179" class="note">Epoch terbaik: 4</text>
<text x="690.0" y="695" text-anchor="middle" class="axislabel">Epoch</text>
<text x="55" y="380.0" transform="rotate(-90 55,380.0)" text-anchor="middle" class="axislabel">Validation Loss</text>
<text x="1230" y="732" text-anchor="end" class="source">Sumber: models/indobenchmark/indobert-base-p2_15k/checkpoint-7500/trainer_state.json</text>
</svg>