<svg xmlns="http://www.w3.org/2000/svg" width="1350" height="760" viewBox="0 0 1350 760">
<rect width="100%" height="100%" fill="#FFFFFF"/>
<style><![CDATA[
text{font-family:Arial, Helvetica, sans-serif;}
.title{font-size:36px;font-weight:700;fill:#111827;}
.subtitle{font-size:21px;fill:#6B7280;}
.axislabel{font-size:19px;fill:#374151;}
.tick{font-size:17px;fill:#6B7280;}
.value{font-size:22px;font-weight:700;fill:#111827;}
.note{font-size:19px;fill:#374151;}
.source{font-size:17px;fill:#6B7280;}
]]></style>
<text x="675.0" y="52" text-anchor="middle" class="title">Kurva Training Loss Model NER</text>
<text x="675.0" y="86" text-anchor="middle" class="subtitle">Perubahan nilai loss selama proses pelatihan</text>
<line x1="150" y1="610.0" x2="1230" y2="610.0" stroke="#E5E7EB" stroke-width="1.5"/>
<text x="138" y="616.0" text-anchor="end" class="tick">0.0</text>
<line x1="150" y1="516.0" x2="1230" y2="516.0" stroke="#E5E7EB" stroke-width="1.5"/>
<text x="138" y="522.0" text-anchor="end" class="tick">0.5</text>
<line x1="150" y1="422.0" x2="1230" y2="422.0" stroke="#E5E7EB" stroke-width="1.5"/>
<text x="138" y="428.0" text-anchor="end" class="tick">1.0</text>
<line x1="150" y1="328.0" x2="1230" y2="328.0" stroke="#E5E7EB" stroke-width="1.5"/>
<text x="138" y="334.0" text-anchor="end" class="tick">1.5</text>
<line x1="150" y1="234.0" x2="1230" y2="234.0" stroke="#E5E7EB" stroke-width="1.5"/>
<text x="138" y="240.0" text-anchor="end" class="tick">2.0</text>
<line x1="150" y1="140.0" x2="1230" y2="140.0" stroke="#E5E7EB" stroke-width="1.5"/>
<text x="138" y="146.0" text-anchor="end" class="tick">2.5</text>
<line x1="366.0" y1="140" x2="366.0" y2="610" stroke="#E5E7EB" stroke-width="1"/>
<text x="366.0" y="640" text-anchor="middle" class="tick">1</text>
<line x1="582.0" y1="140" x2="582.0" y2="610" stroke="#E5E7EB" stroke-width="1"/>
<text x="582.0" y="640" text-anchor="middle" class="tick">2</text>
<line x1="798.0" y1="140" x2="798.0" y2="610" stroke="#E5E7EB" stroke-width="1"/>
<text x="798.0" y="640" text-anchor="middle" class="tick">3</text>
<line x1="1014.0" y1="140" x2="1014.0" y2="610" stroke="#E5E7EB" stroke-width="1"/>
<text x="1014.0" y="640" text-anchor="middle" class="tick">4</text>
<line x1="1230.0" y1="140" x2="1230.0" y2="610" stroke="#E5E7EB" stroke-width="1"/>
<text x="1230.0" y="640" text-anchor="middle" class="tick">5</text>
<line x1="150" y1="610" x2="1230" y2="610" stroke="#374151" stroke-width="2"/>
<line x1="150" y1="140" x2="150" y2="610" stroke="#374151" stroke-width="2"/>
<polyline points="171.6,154.5 193.2,350.7 214.8,455.1 236.4,521.2 258.0,563.5 279.6,586.1 301.2,597.6 322.8,601.1 344.4,601.9 366.0,604.7 387.6,606.5 409.2,606.9 430.8,607.7 452.4,607.7 474.0,608.4 495.6,607.9 517.2,607.6 538.8,608.0 560.4,606.3 582.0,608.4 603.6,608.4 625.2,609.0 646.8,608.6 668.4,608.9 690.0,608.6 711.6,606.0 733.2,609.0 754.8,608.7 776.4,609.1 798.0,609.1 819.6,609.3 841.2,609.2 862.8,609.1 884.4,606.7 906.0,609.3 927.6,609.2 949.2,609.1 970.8,609.1 992.4,609.2 1014.0,608.9 1035.6,609.4 1057.2,609.4 1078.8,609.3 1100.4,607.3 1122.0,609.3 1143.6,609.3 1165.2,609.2 1186.8,609.6 1208.4,609.3 1230.0,609.3" fill="none" stroke="#1F4E79" stroke-width="4"/>
<circle cx="171.6" cy="154.5" r="4.8" fill="#1F4E79"/>
<circle cx="193.2" cy="350.7" r="4.8" fill="#1F4E79"/>
<circle cx="214.8" cy="455.1" r="4.8" fill="#1F4E79"/>
<circle cx="236.4" cy="521.2" r="4.8" fill="#1F4E79"/>
<circle cx="258.0" cy="563.5" r="4.8" fill="#1F4E79"/>
<circle cx="279.6" cy="586.1" r="4.8" fill="#1F4E79"/>
<circle cx="301.2" cy="597.6" r="4.8" fill="#1F4E79"/>
<circle cx="322.8" cy="601.1" r="4.8" fill="#1F4E79"/>
<circle cx="344.4" cy="601.9" r="4.8" fill="#1F4E79"/>
<circle cx="366.0" cy="604.7" r="4.8" fill="#1F4E79"/>
<circle cx="387.6" cy="606.5" r="4.8" fill="#1F4E79"/>
<circle cx="409.2" cy="606.9" r="4.8" fill="#1F4E79"/>
<circle cx="430.8" cy="607.7" r="4.8" fill="#1F4E79"/>
<circle cx="452.4" cy="607.7" r="4.8" fill="#1F4E79"/>
<circle cx="474.0" cy="608.4" r="4.8" fill="#1F4E79"/>
<circle cx="495.6" cy="607.9" r="4.8" fill="#1F4E79"/>
<circle cx="517.2" cy="607.6" r="4.8" fill="#1F4E79"/>
<circle cx="538.8" cy="608.0" r="4.8" fill="#1F4E79"/>
<circle cx="560.4" cy="606.3" r="4.8" fill="#1F4E79"/>
<circle cx="582.0" cy="608.4" r="4.8" fill="#1F4E79"/>
<circle cx="603.6" cy="608.4" r="4.8" fill="#1F4E79"/>
<circle cx="625.2" cy="609.0" r="4.8" fill="#1F4E79"/>
<circle cx="646.8" cy="608.6" r="4.8" fill="#1F4E79"/>
<circle cx="668.4" cy="608.9" r="4.8" fill="#1F4E79"/>
<circle cx="690.0" cy="608.6" r="4.8" fill="#1F4E79"/>
<circle cx="711.6" cy="606.0" r="4.8" fill="#1F4E79"/>
<circle cx="733.2" cy="609.0" r="4.8" fill="#1F4E79"/>
<circle cx="754.8" cy="608.7" r="4.8" fill="#1F4E79"/>
<circle cx="776.4" cy="609.1" r="4.8" fill="#1F4E79"/>
<circle cx="798.0" cy="609.1" r="4.8" fill="#1F4E79"/>
<circle cx="819.6" cy="609.3" r="4.8" fill="#1F4E79"/>
<circle cx="841.2" cy="609.2" r="4.8" fill="#1F4E79"/>
<circle cx="862.8" cy="609.1" r="4.8" fill="#1F4E79"/>
<circle cx="884.4" cy="606.7" r="4.8" fill="#1F4E79"/>
<circle cx="906.0" cy="609.3" r="4.8" fill="#1F4E79"/>
<circle cx="927.6" cy="609.2" r="4.8" fill="#1F4E79"/>
<circle cx="949.2" cy="609.1" r="4.8" fill="#1F4E79"/>
<circle cx="970.8" cy="609.1" r="4.8" fill="#1F4E79"/>
<circle cx="992.4" cy="609.2" r="4.8" fill="#1F4E79"/>
<circle cx="1014.0" cy="608.9" r="4.8" fill="#1F4E79"/>
<circle cx="1035.6" cy="609.4" r="4.8" fill="#1F4E79"/>
<circle cx="1057.2" cy="609.4" r="4.8" fill="#1F4E79"/>
<circle cx="1078.8" cy="609.3" r="4.8" fill="#1F4E79"/>
<circle cx="1100.4" cy="607.3" r="4.8" fill="#1F4E79"/>
<circle cx="1122.0" cy="609.3" r="4.8" fill="#1F4E79"/>
<circle cx="1143.6" cy="609.3" r="4.8" fill="#1F4E79"/>
<circle cx="1165.2" cy="609.2" r="4.8" fill="#1F4E79"/>
<circle cx="1186.8" cy="609.6" r="4.8" fill="#1F4E79"/>
<circle cx="1208.4" cy="609.3" r="4.8" fill="#1F4E79"/>
<circle cx="1230.0" cy="609.3" r="4.8" fill="#1F4E79"/>
<text x="690.0" y="678" text-anchor="middle" class="axislabel">Epoch</text>
<text x="72" y="375.0" transform="rotate(-90 72,375.0)" text-anchor="middle" class="axislabel">Training Loss</text>
<text x="1310" y="732" text-anchor="end" class="source">Sumber: models/indobert_NER/checkpoint-500/trainer_state.json</text>
</svg>