<svg xmlns="http://www.w3.org/2000/svg" width="1900" height="960" viewBox="0 0 1900 960">
<rect width="100%" height="100%" fill="#FFFFFF"/>
<style><![CDATA[
text{font-family:Arial, Helvetica, sans-serif;}
.title{font-size:42px;font-weight:700;fill:#1F2937;}
.subtitle{font-size:24px;fill:#6B7280;}
.label{font-size:28px;fill:#1F2937;}
.axis{font-size:22px;fill:#6B7280;}
.value{font-size:26px;font-weight:700;fill:#1F2937;}
.source{font-size:20px;fill:#6B7280;}
]]></style>
<text x="950.0" y="58" text-anchor="middle" class="title">Distribusi Entitas Dataset Named Entity Recognition</text>
<text x="950.0" y="98" text-anchor="middle" class="subtitle">Kategori waktu digabung sebagai Waktu Loading / Tgl Muat sesuai bentuk informasi di lapangan</text>
<line x1="380.0" y1="170" x2="380.0" y2="850" stroke="#E5E7EB" stroke-width="2"/>
<text x="380.0" y="886" text-anchor="middle" class="axis">0</text>
<line x1="654.0" y1="170" x2="654.0" y2="850" stroke="#E5E7EB" stroke-width="2"/>
<text x="654.0" y="886" text-anchor="middle" class="axis">258</text>
<line x1="928.0" y1="170" x2="928.0" y2="850" stroke="#E5E7EB" stroke-width="2"/>
<text x="928.0" y="886" text-anchor="middle" class="axis">517</text>
<line x1="1202.0" y1="170" x2="1202.0" y2="850" stroke="#E5E7EB" stroke-width="2"/>
<text x="1202.0" y="886" text-anchor="middle" class="axis">775</text>
<line x1="1476.0" y1="170" x2="1476.0" y2="850" stroke="#E5E7EB" stroke-width="2"/>
<text x="1476.0" y="886" text-anchor="middle" class="axis">1.034</text>
<line x1="1750.0" y1="170" x2="1750.0" y2="850" stroke="#E5E7EB" stroke-width="2"/>
<text x="1750.0" y="886" text-anchor="middle" class="axis">1.292</text>
<text x="354" y="217.8" text-anchor="end" class="label">Waktu Loading / Tgl Muat</text>
<rect x="380" y="183.8" width="1370.0" height="48" rx="8" fill="#2F5597"/>
<text x="1732.0" y="216.8" text-anchor="end" fill="#FFFFFF" font-size="26" font-weight="700" font-family="Arial, Helvetica, sans-serif">1.292</text>
<text x="354" y="293.3" text-anchor="end" class="label">Rute/Tujuan</text>
<rect x="380" y="259.3" width="1190.8" height="48" rx="8" fill="#2F5597"/>
<text x="1588.8" y="292.3" class="value">1.123</text>
<text x="354" y="368.9" text-anchor="end" class="label">Kontak Driver / No HP</text>
<rect x="380" y="334.9" width="1082.6" height="48" rx="8" fill="#2F5597"/>
<text x="1480.6" y="367.9" class="value">1.021</text>
<text x="354" y="444.4" text-anchor="end" class="label">Driver</text>
<rect x="380" y="410.4" width="1047.6" height="48" rx="8" fill="#2F5597"/>
<text x="1445.6" y="443.4" class="value">988</text>
<text x="354" y="520.0" text-anchor="end" class="label">Tgl RO</text>
<rect x="380" y="486.0" width="1038.1" height="48" rx="8" fill="#2F5597"/>
<text x="1436.1" y="519.0" class="value">979</text>
<text x="354" y="595.6" text-anchor="end" class="label">Lokasi / Pickup</text>
<rect x="380" y="561.6" width="1002.1" height="48" rx="8" fill="#2F5597"/>
<text x="1400.1" y="594.6" class="value">945</text>
<text x="354" y="671.1" text-anchor="end" class="label">No. Plat</text>
<rect x="380" y="637.1" width="964.9" height="48" rx="8" fill="#2F5597"/>
<text x="1362.9" y="670.1" class="value">910</text>
<text x="354" y="746.7" text-anchor="end" class="label">Jumlah Unit</text>
<rect x="380" y="712.7" width="938.4" height="48" rx="8" fill="#2F5597"/>
<text x="1336.4" y="745.7" class="value">885</text>
<text x="354" y="822.2" text-anchor="end" class="label">Type Truck</text>
<rect x="380" y="788.2" width="938.4" height="48" rx="8" fill="#2F5597"/>
<text x="1336.4" y="821.2" class="value">885</text>
<line x1="380" y1="850" x2="1750" y2="850" stroke="#9CA3AF" stroke-width="2"/>
<text x="1860" y="924" text-anchor="end" class="source">Sumber: data/chat/processed/NER/data_siap_training_CLEAN.json</text>
</svg>