<svg xmlns="http://www.w3.org/2000/svg" width="1450" height="820" viewBox="0 0 1450 820">
<rect width="100%" height="100%" fill="#FFFFFF"/>
<style><![CDATA[
text{font-family:Arial, Helvetica, sans-serif;}
.title{font-size:38px;font-weight:700;fill:#111827;}
.subtitle{font-size:21px;fill:#6B7280;}
.tick{font-size:17px;fill:#6B7280;}
.axislabel{font-size:19px;fill:#374151;}
.legend{font-size:18px;fill:#111827;}
.note{font-size:19px;fill:#374151;}
.source{font-size:17px;fill:#6B7280;}
]]></style>
<text x="725.0" y="54" text-anchor="middle" class="title">Kurva Metrik Evaluasi Model NER</text>
<text x="725.0" y="88" text-anchor="middle" class="subtitle">Accuracy, Precision, Recall, dan F1-score pada data validasi per epoch</text>
<line x1="150" y1="645.0" x2="1270" y2="645.0" stroke="#E5E7EB" stroke-width="1.5"/>
<text x="138" y="651.0" text-anchor="end" class="tick">99.0%</text>
<line x1="150" y1="545.0" x2="1270" y2="545.0" stroke="#E5E7EB" stroke-width="1.5"/>
<text x="138" y="551.0" text-anchor="end" class="tick">99.2%</text>
<line x1="150" y1="445.0" x2="1270" y2="445.0" stroke="#E5E7EB" stroke-width="1.5"/>
<text x="138" y="451.0" text-anchor="end" class="tick">99.4%</text>
<line x1="150" y1="345.0" x2="1270" y2="345.0" stroke="#E5E7EB" stroke-width="1.5"/>
<text x="138" y="351.0" text-anchor="end" class="tick">99.6%</text>
<line x1="150" y1="245.0" x2="1270" y2="245.0" stroke="#E5E7EB" stroke-width="1.5"/>
<text x="138" y="251.0" text-anchor="end" class="tick">99.8%</text>
<line x1="150" y1="145.0" x2="1270" y2="145.0" stroke="#E5E7EB" stroke-width="1.5"/>
<text x="138" y="151.0" text-anchor="end" class="tick">100.0%</text>
<line x1="150.0" y1="145" x2="150.0" y2="645" stroke="#E5E7EB" stroke-width="1"/>
<text x="150.0" y="676" text-anchor="middle" class="tick">1</text>
<line x1="430.0" y1="145" x2="430.0" y2="645" stroke="#E5E7EB" stroke-width="1"/>
<text x="430.0" y="676" text-anchor="middle" class="tick">2</text>
<line x1="710.0" y1="145" x2="710.0" y2="645" stroke="#E5E7EB" stroke-width="1"/>
<text x="710.0" y="676" text-anchor="middle" class="tick">3</text>
<line x1="990.0" y1="145" x2="990.0" y2="645" stroke="#E5E7EB" stroke-width="1"/>
<text x="990.0" y="676" text-anchor="middle" class="tick">4</text>
<line x1="1270.0" y1="145" x2="1270.0" y2="645" stroke="#E5E7EB" stroke-width="1"/>
<text x="1270.0" y="676" text-anchor="middle" class="tick">5</text>
<line x1="150" y1="645" x2="1270" y2="645" stroke="#374151" stroke-width="2"/>
<line x1="150" y1="145" x2="150" y2="645" stroke="#374151" stroke-width="2"/>
<polyline points="150.0,248.4 430.0,262.6 710.0,234.1 990.0,251.9 1270.0,241.2" fill="none" stroke="#1F4E79" stroke-width="3.5"/>
<circle cx="150.0" cy="248.4" r="5" fill="#1F4E79" stroke="#FFFFFF" stroke-width="1.5"/>
<circle cx="430.0" cy="262.6" r="5" fill="#1F4E79" stroke="#FFFFFF" stroke-width="1.5"/>
<circle cx="710.0" cy="234.1" r="5" fill="#1F4E79" stroke="#FFFFFF" stroke-width="1.5"/>
<circle cx="990.0" cy="251.9" r="5" fill="#1F4E79" stroke="#FFFFFF" stroke-width="1.5"/>
<circle cx="1270.0" cy="241.2" r="5" fill="#1F4E79" stroke="#FFFFFF" stroke-width="1.5"/>
<polyline points="150.0,503.3 430.0,611.8 710.0,392.3 990.0,446.9 1270.0,419.6" fill="none" stroke="#C55A11" stroke-width="3.5"/>
<circle cx="150.0" cy="503.3" r="5" fill="#C55A11" stroke="#FFFFFF" stroke-width="1.5"/>
<circle cx="430.0" cy="611.8" r="5" fill="#C55A11" stroke="#FFFFFF" stroke-width="1.5"/>
<circle cx="710.0" cy="392.3" r="5" fill="#C55A11" stroke="#FFFFFF" stroke-width="1.5"/>
<circle cx="990.0" cy="446.9" r="5" fill="#C55A11" stroke="#FFFFFF" stroke-width="1.5"/>
<circle cx="1270.0" cy="419.6" r="5" fill="#C55A11" stroke="#FFFFFF" stroke-width="1.5"/>
<polyline points="150.0,503.3 430.0,420.6 710.0,227.7 990.0,227.7 1270.0,227.7" fill="none" stroke="#548235" stroke-width="3.5"/>
<circle cx="150.0" cy="503.3" r="5" fill="#548235" stroke="#FFFFFF" stroke-width="1.5"/>
<circle cx="430.0" cy="420.6" r="5" fill="#548235" stroke="#FFFFFF" stroke-width="1.5"/>
<circle cx="710.0" cy="227.7" r="5" fill="#548235" stroke="#FFFFFF" stroke-width="1.5"/>
<circle cx="990.0" cy="227.7" r="5" fill="#548235" stroke="#FFFFFF" stroke-width="1.5"/>
<circle cx="1270.0" cy="227.7" r="5" fill="#548235" stroke="#FFFFFF" stroke-width="1.5"/>
<polyline points="150.0,503.3 430.0,516.4 710.0,310.1 990.0,337.5 1270.0,323.8" fill="none" stroke="#7030A0" stroke-width="3.5"/>
<circle cx="150.0" cy="503.3" r="5" fill="#7030A0" stroke="#FFFFFF" stroke-width="1.5"/>
<circle cx="430.0" cy="516.4" r="5" fill="#7030A0" stroke="#FFFFFF" stroke-width="1.5"/>
<circle cx="710.0" cy="310.1" r="5" fill="#7030A0" stroke="#FFFFFF" stroke-width="1.5"/>
<circle cx="990.0" cy="337.5" r="5" fill="#7030A0" stroke="#FFFFFF" stroke-width="1.5"/>
<circle cx="1270.0" cy="323.8" r="5" fill="#7030A0" stroke="#FFFFFF" stroke-width="1.5"/>
<line x1="710.0" y1="145" x2="710.0" y2="645" stroke="#C00000" stroke-width="2" stroke-dasharray="8 6"/>
<text x="724.0" y="173" class="note">F1 terbaik: 99,67% | Validation loss: 0.0181</text>
<line x1="195" y1="723" x2="237" y2="723" stroke="#1F4E79" stroke-width="4"/>
<circle cx="216" cy="723" r="4.5" fill="#1F4E79"/>
<text x="247" y="729" class="legend">Accuracy</text>
<line x1="385" y1="723" x2="427" y2="723" stroke="#C55A11" stroke-width="4"/>
<circle cx="406" cy="723" r="4.5" fill="#C55A11"/>
<text x="437" y="729" class="legend">Precision</text>
<line x1="575" y1="723" x2="617" y2="723" stroke="#548235" stroke-width="4"/>
<circle cx="596" cy="723" r="4.5" fill="#548235"/>
<text x="627" y="729" class="legend">Recall</text>
<line x1="765" y1="723" x2="807" y2="723" stroke="#7030A0" stroke-width="4"/>
<circle cx="786" cy="723" r="4.5" fill="#7030A0"/>
<text x="817" y="729" class="legend">F1-score</text>
<text x="710.0" y="767" text-anchor="middle" class="axislabel">Epoch</text>
<text x="70" y="395.0" transform="rotate(-90 70,395.0)" text-anchor="middle" class="axislabel">Nilai metrik validasi</text>
<text x="1410" y="792" text-anchor="end" class="source">Sumber: models/indobert_NER/checkpoint-500/trainer_state.json</text>
</svg>