<svg xmlns="http://www.w3.org/2000/svg" width="1600" height="930" viewBox="0 0 1600 930">
<rect width="100%" height="100%" fill="#FFFFFF"/>
<style><![CDATA[
text{font-family:Arial, Helvetica, sans-serif;}
.title{font-size:38px;font-weight:700;fill:#111827;}
.subtitle{font-size:21px;fill:#6B7280;}
.tick{font-size:17px;fill:#6B7280;}
.axislabel{font-size:19px;fill:#374151;}
.legend{font-size:17px;fill:#111827;}
.note{font-size:18px;fill:#374151;}
.source{font-size:17px;fill:#6B7280;}
]]></style>
<text x="800.0" y="54" text-anchor="middle" class="title">Kurva Metrik Evaluasi Model Sequence Pair Classification</text>
<text x="800.0" y="88" text-anchor="middle" class="subtitle">Model indobenchmark/indobert-base-p2 pada data validasi per epoch</text>
<line x1="165" y1="705.0" x2="1395" y2="705.0" stroke="#E5E7EB" stroke-width="1.5"/>
<text x="153" y="711.0" text-anchor="end" class="tick">74%</text>
<line x1="165" y1="594.0" x2="1395" y2="594.0" stroke="#E5E7EB" stroke-width="1.5"/>
<text x="153" y="600.0" text-anchor="end" class="tick">78%</text>
<line x1="165" y1="483.0" x2="1395" y2="483.0" stroke="#E5E7EB" stroke-width="1.5"/>
<text x="153" y="489.0" text-anchor="end" class="tick">82%</text>
<line x1="165" y1="372.0" x2="1395" y2="372.0" stroke="#E5E7EB" stroke-width="1.5"/>
<text x="153" y="378.0" text-anchor="end" class="tick">86%</text>
<line x1="165" y1="261.0" x2="1395" y2="261.0" stroke="#E5E7EB" stroke-width="1.5"/>
<text x="153" y="267.0" text-anchor="end" class="tick">90%</text>
<line x1="165" y1="150.0" x2="1395" y2="150.0" stroke="#E5E7EB" stroke-width="1.5"/>
<text x="153" y="156.0" text-anchor="end" class="tick">94%</text>
<line x1="165.0" y1="150" x2="165.0" y2="705" stroke="#E5E7EB" stroke-width="1"/>
<text x="165.0" y="736" text-anchor="middle" class="tick">1</text>
<line x1="472.5" y1="150" x2="472.5" y2="705" stroke="#E5E7EB" stroke-width="1"/>
<text x="472.5" y="736" text-anchor="middle" class="tick">2</text>
<line x1="780.0" y1="150" x2="780.0" y2="705" stroke="#E5E7EB" stroke-width="1"/>
<text x="780.0" y="736" text-anchor="middle" class="tick">3</text>
<line x1="1087.5" y1="150" x2="1087.5" y2="705" stroke="#E5E7EB" stroke-width="1"/>
<text x="1087.5" y="736" text-anchor="middle" class="tick">4</text>
<line x1="1395.0" y1="150" x2="1395.0" y2="705" stroke="#E5E7EB" stroke-width="1"/>
<text x="1395.0" y="736" text-anchor="middle" class="tick">5</text>
<line x1="165" y1="705" x2="1395" y2="705" stroke="#374151" stroke-width="2"/>
<line x1="165" y1="150" x2="165" y2="705" stroke="#374151" stroke-width="2"/>
<polyline points="165.0,662.5 472.5,390.5 780.0,237.0 1087.5,220.3 1395.0,226.8" fill="none" stroke="#1F4E79" stroke-width="3.3"/>
<circle cx="165.0" cy="662.5" r="4.7" fill="#1F4E79" stroke="#FFFFFF" stroke-width="1.4"/>
<circle cx="472.5" cy="390.5" r="4.7" fill="#1F4E79" stroke="#FFFFFF" stroke-width="1.4"/>
<circle cx="780.0" cy="237.0" r="4.7" fill="#1F4E79" stroke="#FFFFFF" stroke-width="1.4"/>
<circle cx="1087.5" cy="220.3" r="4.7" fill="#1F4E79" stroke="#FFFFFF" stroke-width="1.4"/>
<circle cx="1395.0" cy="226.8" r="4.7" fill="#1F4E79" stroke="#FFFFFF" stroke-width="1.4"/>
<polyline points="165.0,827.6 472.5,184.9 780.0,287.5 1087.5,251.6 1395.0,268.7" fill="none" stroke="#C55A11" stroke-width="3.3"/>
<circle cx="165.0" cy="827.6" r="4.7" fill="#C55A11" stroke="#FFFFFF" stroke-width="1.4"/>
<circle cx="472.5" cy="184.9" r="4.7" fill="#C55A11" stroke="#FFFFFF" stroke-width="1.4"/>
<circle cx="780.0" cy="287.5" r="4.7" fill="#C55A11" stroke="#FFFFFF" stroke-width="1.4"/>
<circle cx="1087.5" cy="251.6" r="4.7" fill="#C55A11" stroke="#FFFFFF" stroke-width="1.4"/>
<circle cx="1395.0" cy="268.7" r="4.7" fill="#C55A11" stroke="#FFFFFF" stroke-width="1.4"/>
<polyline points="165.0,240.6 472.5,631.0 780.0,172.2 1087.5,181.5 1395.0,174.0" fill="none" stroke="#548235" stroke-width="3.3"/>
<circle cx="165.0" cy="240.6" r="4.7" fill="#548235" stroke="#FFFFFF" stroke-width="1.4"/>
<circle cx="472.5" cy="631.0" r="4.7" fill="#548235" stroke="#FFFFFF" stroke-width="1.4"/>
<circle cx="780.0" cy="172.2" r="4.7" fill="#548235" stroke="#FFFFFF" stroke-width="1.4"/>
<circle cx="1087.5" cy="181.5" r="4.7" fill="#548235" stroke="#FFFFFF" stroke-width="1.4"/>
<circle cx="1395.0" cy="174.0" r="4.7" fill="#548235" stroke="#FFFFFF" stroke-width="1.4"/>
<polyline points="165.0,572.9 472.5,429.1 780.0,231.2 1087.5,217.0 1395.0,222.2" fill="none" stroke="#7030A0" stroke-width="3.3"/>
<circle cx="165.0" cy="572.9" r="4.7" fill="#7030A0" stroke="#FFFFFF" stroke-width="1.4"/>
<circle cx="472.5" cy="429.1" r="4.7" fill="#7030A0" stroke="#FFFFFF" stroke-width="1.4"/>
<circle cx="780.0" cy="231.2" r="4.7" fill="#7030A0" stroke="#FFFFFF" stroke-width="1.4"/>
<circle cx="1087.5" cy="217.0" r="4.7" fill="#7030A0" stroke="#FFFFFF" stroke-width="1.4"/>
<circle cx="1395.0" cy="222.2" r="4.7" fill="#7030A0" stroke="#FFFFFF" stroke-width="1.4"/>
<polyline points="165.0,678.5 472.5,393.6 780.0,237.1 1087.5,220.3 1395.0,226.9" fill="none" stroke="#7F7F7F" stroke-width="3.3"/>
<circle cx="165.0" cy="678.5" r="4.7" fill="#7F7F7F" stroke="#FFFFFF" stroke-width="1.4"/>
<circle cx="472.5" cy="393.6" r="4.7" fill="#7F7F7F" stroke="#FFFFFF" stroke-width="1.4"/>
<circle cx="780.0" cy="237.1" r="4.7" fill="#7F7F7F" stroke="#FFFFFF" stroke-width="1.4"/>
<circle cx="1087.5" cy="220.3" r="4.7" fill="#7F7F7F" stroke="#FFFFFF" stroke-width="1.4"/>
<circle cx="1395.0" cy="226.9" r="4.7" fill="#7F7F7F" stroke="#FFFFFF" stroke-width="1.4"/>
<line x1="1087.5" y1="150" x2="1087.5" y2="705" stroke="#C00000" stroke-width="2" stroke-dasharray="8 6"/>
<rect x="925" y="605" width="430" height="52" rx="8" fill="#FFFFFF" stroke="#CBD5E1"/>
<text x="943" y="638" class="note">F1 MATCH terbaik: 91,58% | Loss: 0.3261</text>
<line x1="185" y1="783" x2="223" y2="783" stroke="#1F4E79" stroke-width="4"/>
<circle cx="204" cy="783" r="4.2" fill="#1F4E79"/>
<text x="233" y="789" class="legend">Accuracy</text>
<line x1="365" y1="783" x2="403" y2="783" stroke="#C55A11" stroke-width="4"/>
<circle cx="384" cy="783" r="4.2" fill="#C55A11"/>
<text x="413" y="789" class="legend">Precision MATCH</text>
<line x1="615" y1="783" x2="653" y2="783" stroke="#548235" stroke-width="4"/>
<circle cx="634" cy="783" r="4.2" fill="#548235"/>
<text x="663" y="789" class="legend">Recall MATCH</text>
<line x1="815" y1="783" x2="853" y2="783" stroke="#7030A0" stroke-width="4"/>
<circle cx="834" cy="783" r="4.2" fill="#7030A0"/>
<text x="863" y="789" class="legend">F1 MATCH</text>
<line x1="975" y1="783" x2="1013" y2="783" stroke="#7F7F7F" stroke-width="4"/>
<circle cx="994" cy="783" r="4.2" fill="#7F7F7F"/>
<text x="1023" y="789" class="legend">F1 Macro</text>
<text x="780.0" y="831" text-anchor="middle" class="axislabel">Epoch</text>
<text x="81" y="427.5" transform="rotate(-90 81,427.5)" text-anchor="middle" class="axislabel">Nilai metrik validasi</text>
<text x="1560" y="900" text-anchor="end" class="source">Sumber: models/indobenchmark/indobert-base-p2_15k/checkpoint-7500/trainer_state.json</text>
</svg>