<svg xmlns="http://www.w3.org/2000/svg" width="1750" height="820" viewBox="0 0 1750 820">
<rect width="100%" height="100%" fill="#FFFFFF"/>
<style><![CDATA[
text{font-family:Arial, Helvetica, sans-serif;}
.title{font-size:36px;font-weight:700;fill:#1F2937;}
.label{font-size:25px;fill:#1F2937;}
.axis{font-size:20px;fill:#6B7280;}
.value{font-size:24px;font-weight:700;fill:#1F2937;}
.legend{font-size:21px;fill:#1F2937;}
.source{font-size:18px;fill:#6B7280;}
]]></style>
<text x="875.0" y="56" text-anchor="middle" class="title">Distribusi Skenario Dataset Sequence Pair Classification</text>
<rect x="700.0" y="86" width="22" height="22" fill="#2F5597"/>
<text x="730.0" y="105" class="legend">MATCH</text>
<rect x="900.0" y="86" width="22" height="22" fill="#C55A11"/>
<text x="930.0" y="105" class="legend">NO_MATCH</text>
<line x1="430.0" y1="130" x2="430.0" y2="720" stroke="#E5E7EB" stroke-width="2"/>
<text x="430.0" y="754" text-anchor="middle" class="axis">0</text>
<line x1="650.0" y1="130" x2="650.0" y2="720" stroke="#E5E7EB" stroke-width="2"/>
<text x="650.0" y="754" text-anchor="middle" class="axis">1.078</text>
<line x1="870.0" y1="130" x2="870.0" y2="720" stroke="#E5E7EB" stroke-width="2"/>
<text x="870.0" y="754" text-anchor="middle" class="axis">2.156</text>
<line x1="1090.0" y1="130" x2="1090.0" y2="720" stroke="#E5E7EB" stroke-width="2"/>
<text x="1090.0" y="754" text-anchor="middle" class="axis">3.235</text>
<line x1="1310.0" y1="130" x2="1310.0" y2="720" stroke="#E5E7EB" stroke-width="2"/>
<text x="1310.0" y="754" text-anchor="middle" class="axis">4.313</text>
<line x1="1530.0" y1="130" x2="1530.0" y2="720" stroke="#E5E7EB" stroke-width="2"/>
<text x="1530.0" y="754" text-anchor="middle" class="axis">5.391</text>
<text x="406" y="181.1" text-anchor="end" class="label">Isi slot kosong</text>
<rect x="430" y="151.1" width="1100.0" height="42" fill="#2F5597"/>
<text x="1546.0" y="181.1" class="value">5.391</text>
<text x="406" y="265.4" text-anchor="end" class="label">Beda pesanan/konteks</text>
<rect x="430" y="235.4" width="1013.9" height="42" fill="#C55A11"/>
<text x="1459.9" y="265.4" class="value">4.969</text>
<text x="406" y="349.7" text-anchor="end" class="label">Order penuh/melebihi target</text>
<rect x="430" y="319.7" width="249.3" height="42" fill="#C55A11"/>
<text x="695.3" y="349.7" class="value">1.222</text>
<text x="406" y="434.0" text-anchor="end" class="label">Resend + unit baru</text>
<rect x="430" y="404.0" width="237.9" height="42" fill="#2F5597"/>
<text x="683.9" y="434.0" class="value">1.166</text>
<text x="406" y="518.3" text-anchor="end" class="label">Duplikat unit lama</text>
<rect x="430" y="488.3" width="192.4" height="42" fill="#2F5597"/>
<text x="638.4" y="518.3" class="value">943</text>
<text x="406" y="602.6" text-anchor="end" class="label">Beda line/rute</text>
<rect x="430" y="572.6" width="143.2" height="42" fill="#C55A11"/>
<text x="589.2" y="602.6" class="value">702</text>
<text x="406" y="686.9" text-anchor="end" class="label">Data susulan belum lengkap</text>
<rect x="430" y="656.9" width="123.9" height="42" fill="#C55A11"/>
<text x="569.9" y="686.9" class="value">607</text>
<line x1="430" y1="720" x2="1530" y2="720" stroke="#9CA3AF" stroke-width="2"/>
<text x="1710" y="790" text-anchor="end" class="source">Sumber: data/chat/processed/SPC/stage2_completion_matcher_dataset.json</text>
</svg>