<svg xmlns="http://www.w3.org/2000/svg" width="1800" height="1180" viewBox="0 0 1800 1180">
<rect width="100%" height="100%" fill="#FFFFFF"/>
<style><![CDATA[
text{font-family:Arial, Helvetica, sans-serif;}
.title{font-size:40px;font-weight:700;fill:#111827;}
.subtitle{font-size:22px;fill:#6B7280;}
.panel{font-size:27px;font-weight:700;fill:#111827;}
.axislabel{font-size:19px;fill:#374151;}
.tick{font-size:17px;fill:#6B7280;}
.legend{font-size:18px;fill:#111827;}
.note{font-size:19px;fill:#374151;}
.source{font-size:17px;fill:#6B7280;}
]]></style>
<text x="900.0" y="54" text-anchor="middle" class="title">Kurva Pelatihan dan Evaluasi Model Named Entity Recognition</text>
<text x="900.0" y="88" text-anchor="middle" class="subtitle">Model indolem/indobert-base-uncased pada data validasi</text>
<text x="125" y="142" class="panel">A. Training Loss</text>
<rect x="125" y="170" width="705" height="345" fill="#FFFFFF"/>
<line x1="125" y1="515.0" x2="830" y2="515.0" stroke="#E5E7EB" stroke-width="1.5"/>
<text x="113" y="521.0" text-anchor="end" class="tick">0.0</text>
<line x1="125" y1="446.0" x2="830" y2="446.0" stroke="#E5E7EB" stroke-width="1.5"/>
<text x="113" y="452.0" text-anchor="end" class="tick">0.5</text>
<line x1="125" y1="377.0" x2="830" y2="377.0" stroke="#E5E7EB" stroke-width="1.5"/>
<text x="113" y="383.0" text-anchor="end" class="tick">1.0</text>
<line x1="125" y1="308.0" x2="830" y2="308.0" stroke="#E5E7EB" stroke-width="1.5"/>
<text x="113" y="314.0" text-anchor="end" class="tick">1.5</text>
<line x1="125" y1="239.0" x2="830" y2="239.0" stroke="#E5E7EB" stroke-width="1.5"/>
<text x="113" y="245.0" text-anchor="end" class="tick">2.0</text>
<line x1="125" y1="170.0" x2="830" y2="170.0" stroke="#E5E7EB" stroke-width="1.5"/>
<text x="113" y="176.0" text-anchor="end" class="tick">2.5</text>
<line x1="266.0" y1="170" x2="266.0" y2="515" stroke="#E5E7EB" stroke-width="1"/>
<text x="266.0" y="543" text-anchor="middle" class="tick">1</text>
<line x1="407.0" y1="170" x2="407.0" y2="515" stroke="#E5E7EB" stroke-width="1"/>
<text x="407.0" y="543" text-anchor="middle" class="tick">2</text>
<line x1="548.0" y1="170" x2="548.0" y2="515" stroke="#E5E7EB" stroke-width="1"/>
<text x="548.0" y="543" text-anchor="middle" class="tick">3</text>
<line x1="689.0" y1="170" x2="689.0" y2="515" stroke="#E5E7EB" stroke-width="1"/>
<text x="689.0" y="543" text-anchor="middle" class="tick">4</text>
<line x1="830.0" y1="170" x2="830.0" y2="515" stroke="#E5E7EB" stroke-width="1"/>
<text x="830.0" y="543" text-anchor="middle" class="tick">5</text>
<line x1="125" y1="515" x2="830" y2="515" stroke="#374151" stroke-width="2"/>
<line x1="125" y1="170" x2="125" y2="515" stroke="#374151" stroke-width="2"/>
<polyline points="139.1,180.6 153.2,324.7 167.3,401.3 181.4,449.8 195.5,480.8 209.6,497.5 223.7,505.9 237.8,508.5 251.9,509.1 266.0,511.1 280.1,512.4 294.2,512.8 308.3,513.3 322.4,513.3 336.5,513.8 350.6,513.5 364.7,513.3 378.8,513.6 392.9,512.3 407.0,513.8 421.1,513.9 435.2,514.3 449.3,514.0 463.4,514.2 477.5,514.0 491.6,512.1 505.7,514.3 519.8,514.1 533.9,514.4 548.0,514.3 562.1,514.5 576.2,514.4 590.3,514.4 604.4,512.6 618.5,514.5 632.6,514.4 646.7,514.3 660.8,514.3 674.9,514.4 689.0,514.2 703.1,514.6 717.2,514.6 731.3,514.5 745.4,513.0 759.5,514.5 773.6,514.5 787.7,514.4 801.8,514.7 815.9,514.5 830.0,514.5" fill="none" stroke="#1F4E79" stroke-width="4"/>
<text x="477.5" y="577" text-anchor="middle" class="axislabel">Epoch</text>
<text x="55" y="342.5" transform="rotate(-90 55,342.5)" text-anchor="middle" class="axislabel">Loss</text>
<text x="990" y="142" class="panel">B. Metrik Validasi</text>
<rect x="990" y="170" width="665" height="345" fill="#FFFFFF"/>
<line x1="990" y1="515.0" x2="1655" y2="515.0" stroke="#E5E7EB" stroke-width="1.5"/>
<text x="978" y="521.0" text-anchor="end" class="tick">99.0%</text>
<line x1="990" y1="446.0" x2="1655" y2="446.0" stroke="#E5E7EB" stroke-width="1.5"/>
<text x="978" y="452.0" text-anchor="end" class="tick">99.2%</text>
<line x1="990" y1="377.0" x2="1655" y2="377.0" stroke="#E5E7EB" stroke-width="1.5"/>
<text x="978" y="383.0" text-anchor="end" class="tick">99.4%</text>
<line x1="990" y1="308.0" x2="1655" y2="308.0" stroke="#E5E7EB" stroke-width="1.5"/>
<text x="978" y="314.0" text-anchor="end" class="tick">99.6%</text>
<line x1="990" y1="239.0" x2="1655" y2="239.0" stroke="#E5E7EB" stroke-width="1.5"/>
<text x="978" y="245.0" text-anchor="end" class="tick">99.8%</text>
<line x1="990" y1="170.0" x2="1655" y2="170.0" stroke="#E5E7EB" stroke-width="1.5"/>
<text x="978" y="176.0" text-anchor="end" class="tick">100.0%</text>
<line x1="990.0" y1="170" x2="990.0" y2="515" stroke="#E5E7EB" stroke-width="1"/>
<text x="990.0" y="543" text-anchor="middle" class="tick">1</text>
<line x1="1156.2" y1="170" x2="1156.2" y2="515" stroke="#E5E7EB" stroke-width="1"/>
<text x="1156.2" y="543" text-anchor="middle" class="tick">2</text>
<line x1="1322.5" y1="170" x2="1322.5" y2="515" stroke="#E5E7EB" stroke-width="1"/>
<text x="1322.5" y="543" text-anchor="middle" class="tick">3</text>
<line x1="1488.8" y1="170" x2="1488.8" y2="515" stroke="#E5E7EB" stroke-width="1"/>
<text x="1488.8" y="543" text-anchor="middle" class="tick">4</text>
<line x1="1655.0" y1="170" x2="1655.0" y2="515" stroke="#E5E7EB" stroke-width="1"/>
<text x="1655.0" y="543" text-anchor="middle" class="tick">5</text>
<line x1="990" y1="515" x2="1655" y2="515" stroke="#374151" stroke-width="2"/>
<line x1="990" y1="170" x2="990" y2="515" stroke="#374151" stroke-width="2"/>
<polyline points="990.0,241.3 1156.2,251.2 1322.5,231.5 1488.8,243.8 1655.0,236.4" fill="none" stroke="#1F4E79" stroke-width="3.2"/>
<circle cx="990.0" cy="241.3" r="4.2" fill="#1F4E79"/>
<circle cx="1156.2" cy="251.2" r="4.2" fill="#1F4E79"/>
<circle cx="1322.5" cy="231.5" r="4.2" fill="#1F4E79"/>
<circle cx="1488.8" cy="243.8" r="4.2" fill="#1F4E79"/>
<circle cx="1655.0" cy="236.4" r="4.2" fill="#1F4E79"/>
<polyline points="990.0,417.2 1156.2,492.1 1322.5,340.6 1488.8,378.3 1655.0,359.5" fill="none" stroke="#C55A11" stroke-width="3.2"/>
<circle cx="990.0" cy="417.2" r="4.2" fill="#C55A11"/>
<circle cx="1156.2" cy="492.1" r="4.2" fill="#C55A11"/>
<circle cx="1322.5" cy="340.6" r="4.2" fill="#C55A11"/>
<circle cx="1488.8" cy="378.3" r="4.2" fill="#C55A11"/>
<circle cx="1655.0" cy="359.5" r="4.2" fill="#C55A11"/>
<polyline points="990.0,417.2 1156.2,360.2 1322.5,227.1 1488.8,227.1 1655.0,227.1" fill="none" stroke="#548235" stroke-width="3.2"/>
<circle cx="990.0" cy="417.2" r="4.2" fill="#548235"/>
<circle cx="1156.2" cy="360.2" r="4.2" fill="#548235"/>
<circle cx="1322.5" cy="227.1" r="4.2" fill="#548235"/>
<circle cx="1488.8" cy="227.1" r="4.2" fill="#548235"/>
<circle cx="1655.0" cy="227.1" r="4.2" fill="#548235"/>
<polyline points="990.0,417.2 1156.2,426.3 1322.5,283.9 1488.8,302.8 1655.0,293.4" fill="none" stroke="#7030A0" stroke-width="3.2"/>
<circle cx="990.0" cy="417.2" r="4.2" fill="#7030A0"/>
<circle cx="1156.2" cy="426.3" r="4.2" fill="#7030A0"/>
<circle cx="1322.5" cy="283.9" r="4.2" fill="#7030A0"/>
<circle cx="1488.8" cy="302.8" r="4.2" fill="#7030A0"/>
<circle cx="1655.0" cy="293.4" r="4.2" fill="#7030A0"/>
<line x1="1322.5" y1="170" x2="1322.5" y2="515" stroke="#C00000" stroke-width="2" stroke-dasharray="8 6"/>
<text x="1332.5" y="192" class="note">F1 terbaik: 99,67% (epoch 3)</text>
<line x1="1022" y1="570" x2="1056" y2="570" stroke="#1F4E79" stroke-width="4"/>
<text x="1065" y="576" class="legend">Accuracy</text>
<line x1="1177" y1="570" x2="1211" y2="570" stroke="#C55A11" stroke-width="4"/>
<text x="1220" y="576" class="legend">Precision</text>
<line x1="1332" y1="570" x2="1366" y2="570" stroke="#548235" stroke-width="4"/>
<text x="1375" y="576" class="legend">Recall</text>
<line x1="1487" y1="570" x2="1521" y2="570" stroke="#7030A0" stroke-width="4"/>
<text x="1530" y="576" class="legend">F1-score</text>
<text x="1322.5" y="610" text-anchor="middle" class="axislabel">Epoch</text>
<text x="916" y="342.5" transform="rotate(-90 916,342.5)" text-anchor="middle" class="axislabel">Persentase</text>
<text x="220" y="662" class="panel">C. Validation Loss per Epoch</text>
<rect x="220" y="690" width="1385" height="260" fill="#FFFFFF"/>
<line x1="220" y1="950.0" x2="1605" y2="950.0" stroke="#E5E7EB" stroke-width="1.5"/>
<text x="208" y="956.0" text-anchor="end" class="tick">0.0175</text>
<line x1="220" y1="906.7" x2="1605" y2="906.7" stroke="#E5E7EB" stroke-width="1.5"/>
<text x="208" y="912.7" text-anchor="end" class="tick">0.0180</text>
<line x1="220" y1="863.3" x2="1605" y2="863.3" stroke="#E5E7EB" stroke-width="1.5"/>
<text x="208" y="869.3" text-anchor="end" class="tick">0.0185</text>
<line x1="220" y1="820.0" x2="1605" y2="820.0" stroke="#E5E7EB" stroke-width="1.5"/>
<text x="208" y="826.0" text-anchor="end" class="tick">0.0190</text>
<line x1="220" y1="776.7" x2="1605" y2="776.7" stroke="#E5E7EB" stroke-width="1.5"/>
<text x="208" y="782.7" text-anchor="end" class="tick">0.0195</text>
<line x1="220" y1="733.3" x2="1605" y2="733.3" stroke="#E5E7EB" stroke-width="1.5"/>
<text x="208" y="739.3" text-anchor="end" class="tick">0.0200</text>
<line x1="220" y1="690.0" x2="1605" y2="690.0" stroke="#E5E7EB" stroke-width="1.5"/>
<text x="208" y="696.0" text-anchor="end" class="tick">0.0205</text>
<line x1="220.0" y1="690" x2="220.0" y2="950" stroke="#E5E7EB" stroke-width="1"/>
<text x="220.0" y="978" text-anchor="middle" class="tick">1</text>
<line x1="566.2" y1="690" x2="566.2" y2="950" stroke="#E5E7EB" stroke-width="1"/>
<text x="566.2" y="978" text-anchor="middle" class="tick">2</text>
<line x1="912.5" y1="690" x2="912.5" y2="950" stroke="#E5E7EB" stroke-width="1"/>
<text x="912.5" y="978" text-anchor="middle" class="tick">3</text>
<line x1="1258.8" y1="690" x2="1258.8" y2="950" stroke="#E5E7EB" stroke-width="1"/>
<text x="1258.8" y="978" text-anchor="middle" class="tick">4</text>
<line x1="1605.0" y1="690" x2="1605.0" y2="950" stroke="#E5E7EB" stroke-width="1"/>
<text x="1605.0" y="978" text-anchor="middle" class="tick">5</text>
<line x1="220" y1="950" x2="1605" y2="950" stroke="#374151" stroke-width="2"/>
<line x1="220" y1="690" x2="220" y2="950" stroke="#374151" stroke-width="2"/>
<polyline points="220.0,735.9 566.2,902.5 912.5,901.0 1258.8,848.3 1605.0,876.4" fill="none" stroke="#C55A11" stroke-width="4"/>
<circle cx="220.0" cy="735.9" r="5" fill="#C55A11"/>
<circle cx="566.2" cy="902.5" r="5" fill="#C55A11"/>
<circle cx="912.5" cy="901.0" r="5" fill="#C55A11"/>
<circle cx="1258.8" cy="848.3" r="5" fill="#C55A11"/>
<circle cx="1605.0" cy="876.4" r="5" fill="#C55A11"/>
<line x1="912.5" y1="690" x2="912.5" y2="950" stroke="#C00000" stroke-width="2" stroke-dasharray="8 6"/>
<text x="912.5" y="1012" text-anchor="middle" class="axislabel">Epoch</text>
<text x="138" y="820.0" transform="rotate(-90 138,820.0)" text-anchor="middle" class="axislabel">Loss</text>
<text x="1755" y="1152" text-anchor="end" class="source">Sumber: models/indobert_NER/checkpoint-500/trainer_state.json</text>
</svg>