<svg xmlns="http://www.w3.org/2000/svg" width="1400" height="900" viewBox="0 0 1400 900">
<rect width="100%" height="100%" fill="#FFFFFF"/>
<style><![CDATA[
text{font-family:Arial, Helvetica, sans-serif;}
.title{font-size:38px;font-weight:700;fill:#1F2937;}
.subtitle{font-size:22px;fill:#6B7280;}
.legend{font-size:28px;fill:#1F2937;}
.legendSmall{font-size:24px;fill:#6B7280;}
.inside{font-size:30px;font-weight:700;fill:#FFFFFF;}
.source{font-size:19px;fill:#6B7280;}
]]></style>
<text x="700.0" y="58" text-anchor="middle" class="title">Distribusi Pembagian Dataset Sequence Pair Classification</text>
<text x="700.0" y="96" text-anchor="middle" class="subtitle">Pembagian data menggunakan rasio 80% data latih dan 20% data validasi/test</text>
<path d="M 440 465 L 440.00 220.00 A 245 245 0 1 1 206.99 389.29 Z" fill="#2F5597" stroke="#FFFFFF" stroke-width="5"/>
<text x="529.3" y="583.9" text-anchor="middle" class="inside">80%</text>
<text x="529.3" y="619.9" text-anchor="middle" class="inside">12.000</text>
<path d="M 440 465 L 206.99 389.29 A 245 245 0 0 1 440.00 220.00 Z" fill="#C55A11" stroke="#FFFFFF" stroke-width="5"/>
<text x="350.7" y="338.1" text-anchor="middle" class="inside">20%</text>
<text x="350.7" y="374.1" text-anchor="middle" class="inside">3.000</text>
<circle cx="440" cy="465" r="94" fill="#FFFFFF"/>
<text x="440" y="457" text-anchor="middle" style="font-size:28px;font-weight:700;fill:#1F2937;font-family:Arial, Helvetica, sans-serif;">Total</text>
<text x="440" y="499" text-anchor="middle" style="font-size:32px;font-weight:700;fill:#1F2937;font-family:Arial, Helvetica, sans-serif;">15.000</text>
<rect x="800" y="330" width="34" height="34" rx="6" fill="#2F5597"/>
<text x="852" y="357" class="legend">Data Latih</text>
<text x="852" y="395" class="legendSmall">12.000 data (80%)</text>
<rect x="800" y="475" width="34" height="34" rx="6" fill="#C55A11"/>
<text x="852" y="502" class="legend">Data Validasi/Test</text>
<text x="852" y="540" class="legendSmall">3.000 data (20%)</text>
<rect x="800" y="635" width="480" height="95" rx="12" fill="#F8FAFC" stroke="#CBD5E1"/>
<text x="824" y="675" class="legendSmall">Komposisi label tetap seimbang:</text>
<text x="824" y="713" class="legendSmall">MATCH dan NO_MATCH masing-masing 50%</text>
<text x="1360" y="866" text-anchor="end" class="source">Sumber: data/chat/processed/SPC/stage2_completion_matcher_dataset.json</text>
</svg>