<svg xmlns="http://www.w3.org/2000/svg" width="1350" height="720" viewBox="0 0 1350 720">
<rect width="100%" height="100%" fill="#FFFFFF"/>
<style><![CDATA[
text{font-family:Arial, Helvetica, sans-serif;}
.title{font-size:36px;font-weight:700;fill:#111827;}
.subtitle{font-size:21px;fill:#6B7280;}
.axislabel{font-size:19px;fill:#374151;}
.tick{font-size:17px;fill:#6B7280;}
.value{font-size:22px;font-weight:700;fill:#111827;}
.note{font-size:19px;fill:#374151;}
.source{font-size:17px;fill:#6B7280;}
]]></style>
<text x="675.0" y="52" text-anchor="middle" class="title">Metrik Evaluasi Model NER</text>
<text x="675.0" y="86" text-anchor="middle" class="subtitle">Hasil terbaik pada data validasi epoch ke-3</text>
<line x1="230.0" y1="140" x2="230.0" y2="535" stroke="#E5E7EB" stroke-width="1.5"/>
<text x="230.0" y="566" text-anchor="middle" class="tick">99.0%</text>
<line x1="428.0" y1="140" x2="428.0" y2="535" stroke="#E5E7EB" stroke-width="1.5"/>
<text x="428.0" y="566" text-anchor="middle" class="tick">99.2%</text>
<line x1="626.0" y1="140" x2="626.0" y2="535" stroke="#E5E7EB" stroke-width="1.5"/>
<text x="626.0" y="566" text-anchor="middle" class="tick">99.4%</text>
<line x1="824.0" y1="140" x2="824.0" y2="535" stroke="#E5E7EB" stroke-width="1.5"/>
<text x="824.0" y="566" text-anchor="middle" class="tick">99.6%</text>
<line x1="1022.0" y1="140" x2="1022.0" y2="535" stroke="#E5E7EB" stroke-width="1.5"/>
<text x="1022.0" y="566" text-anchor="middle" class="tick">99.8%</text>
<line x1="1220.0" y1="140" x2="1220.0" y2="535" stroke="#E5E7EB" stroke-width="1.5"/>
<text x="1220.0" y="566" text-anchor="middle" class="tick">100.0%</text>
<text x="208" y="198.4" text-anchor="end" class="axislabel">Accuracy</text>
<rect x="230" y="167.4" width="813.6" height="44" fill="#7030A0"/>
<text x="1029.6" y="198.4" text-anchor="end" style="font-size:22px;font-weight:700;fill:#FFFFFF;font-family:Arial, Helvetica, sans-serif;">99,82%</text>
<text x="208" y="297.1" text-anchor="end" class="axislabel">Precision</text>
<rect x="230" y="266.1" width="500.4" height="44" fill="#7030A0"/>
<text x="716.4" y="297.1" text-anchor="end" style="font-size:22px;font-weight:700;fill:#FFFFFF;font-family:Arial, Helvetica, sans-serif;">99,51%</text>
<text x="208" y="395.9" text-anchor="end" class="axislabel">Recall</text>
<rect x="230" y="364.9" width="826.3" height="44" fill="#7030A0"/>
<text x="1042.3" y="395.9" text-anchor="end" style="font-size:22px;font-weight:700;fill:#FFFFFF;font-family:Arial, Helvetica, sans-serif;">99,83%</text>
<text x="208" y="494.6" text-anchor="end" class="axislabel">F1-score</text>
<rect x="230" y="463.6" width="663.1" height="44" fill="#7030A0"/>
<text x="879.1" y="494.6" text-anchor="end" style="font-size:22px;font-weight:700;fill:#FFFFFF;font-family:Arial, Helvetica, sans-serif;">99,67%</text>
<line x1="230" y1="535" x2="1220" y2="535" stroke="#374151" stroke-width="2"/>
<text x="725.0" y="603" text-anchor="middle" class="axislabel">Nilai metrik validasi</text>
<rect x="230" y="624" width="990" height="42" rx="8" fill="#F8FAFC" stroke="#CBD5E1"/>
<text x="248" y="652" class="note">Validation loss: 0.0181 | Epoch terbaik: 3</text>
<text x="1310" y="692" text-anchor="end" class="source">Sumber: models/indobert_NER/checkpoint-500/trainer_state.json</text>
</svg>