<svg xmlns="http://www.w3.org/2000/svg" width="1350" height="760" viewBox="0 0 1350 760">
<rect width="100%" height="100%" fill="#FFFFFF"/>
<style><![CDATA[
text{font-family:Arial, Helvetica, sans-serif;}
.title{font-size:36px;font-weight:700;fill:#111827;}
.subtitle{font-size:21px;fill:#6B7280;}
.axislabel{font-size:19px;fill:#374151;}
.tick{font-size:17px;fill:#6B7280;}
.value{font-size:21px;font-weight:700;fill:#111827;}
.note{font-size:18px;fill:#374151;}
.source{font-size:17px;fill:#6B7280;}
.label{font-size:18px;font-weight:700;fill:#111827;}
]]></style>
<text x="675.0" y="52" text-anchor="middle" class="title">Kurva Training Loss Model SPC</text>
<text x="675.0" y="86" text-anchor="middle" class="subtitle">Perubahan nilai loss selama fine-tuning Sequence Pair Classification</text>

<line x1="150" y1="610.0" x2="1230" y2="610.0" stroke="#E5E7EB" stroke-width="1.5"/>
<text x="138" y="616.0" text-anchor="end" class="tick">0.00</text>
<line x1="150" y1="516.0" x2="1230" y2="516.0" stroke="#E5E7EB" stroke-width="1.5"/>
<text x="138" y="522.0" text-anchor="end" class="tick">0.16</text>
<line x1="150" y1="422.0" x2="1230" y2="422.0" stroke="#E5E7EB" stroke-width="1.5"/>
<text x="138" y="428.0" text-anchor="end" class="tick">0.32</text>
<line x1="150" y1="328.0" x2="1230" y2="328.0" stroke="#E5E7EB" stroke-width="1.5"/>
<text x="138" y="334.0" text-anchor="end" class="tick">0.48</text>
<line x1="150" y1="234.0" x2="1230" y2="234.0" stroke="#E5E7EB" stroke-width="1.5"/>
<text x="138" y="240.0" text-anchor="end" class="tick">0.64</text>
<line x1="150" y1="140.0" x2="1230" y2="140.0" stroke="#E5E7EB" stroke-width="1.5"/>
<text x="138" y="146.0" text-anchor="end" class="tick">0.80</text>
<line x1="366.0" y1="140" x2="366.0" y2="610" stroke="#E5E7EB" stroke-width="1"/>
<text x="366.0" y="640" text-anchor="middle" class="tick">1</text>
<line x1="582.0" y1="140" x2="582.0" y2="610" stroke="#E5E7EB" stroke-width="1"/>
<text x="582.0" y="640" text-anchor="middle" class="tick">2</text>
<line x1="798.0" y1="140" x2="798.0" y2="610" stroke="#E5E7EB" stroke-width="1"/>
<text x="798.0" y="640" text-anchor="middle" class="tick">3</text>
<line x1="1014.0" y1="140" x2="1014.0" y2="610" stroke="#E5E7EB" stroke-width="1"/>
<text x="1014.0" y="640" text-anchor="middle" class="tick">4</text>
<line x1="1230.0" y1="140" x2="1230.0" y2="610" stroke="#E5E7EB" stroke-width="1"/>
<text x="1230.0" y="640" text-anchor="middle" class="tick">5</text>
<line x1="150" y1="610" x2="1230" y2="610" stroke="#374151" stroke-width="2"/>
<line x1="150" y1="140" x2="150" y2="610" stroke="#374151" stroke-width="2"/>
<polyline points="152.9,182.5 155.8,181.9 158.6,199.8 161.5,209.0 164.4,212.2 167.3,221.8 170.2,213.7 173.0,172.6 175.9,230.4 178.8,226.7 181.7,213.0 184.6,257.2 187.4,231.9 190.3,210.3 193.2,256.0 196.1,228.5 199.0,333.2 201.8,191.3 204.7,205.4 207.6,273.4 210.5,234.5 213.4,268.0 216.2,253.6 219.1,257.9 222.0,263.9 224.9,296.6 227.8,274.6 230.6,328.5 233.5,251.0 236.4,298.5 239.3,267.8 242.2,327.3 245.0,295.2 247.9,290.5 250.8,349.4 253.7,288.0 256.6,253.9 259.4,314.5 262.3,358.0 265.2,282.1 268.1,325.8 271.0,265.1 273.8,299.2 276.7,324.8 279.6,320.1 282.5,321.2 285.4,318.9 288.2,301.3 291.1,278.7 294.0,334.1 296.9,327.5 299.8,339.0 302.6,336.2 305.5,255.0 308.4,285.9 311.3,373.2 314.2,349.8 317.0,295.2 319.9,302.0 322.8,315.1 325.7,342.9 328.6,346.4 331.4,295.2 334.3,322.2 337.2,340.8 340.1,308.2 343.0,361.7 345.8,284.2 348.7,330.9 351.6,325.0 354.5,251.4 357.4,327.9 360.2,334.4 363.1,339.0 366.0,356.0 368.9,317.0 371.8,336.2 374.6,287.5 377.5,351.9 380.4,343.8 383.3,405.4 386.2,297.4 389.0,352.1 391.9,394.0 394.8,324.9 397.7,385.9 400.6,310.3 403.4,390.4 406.3,337.5 409.2,374.6 412.1,377.7 415.0,387.7 417.8,322.6 420.7,362.0 423.6,345.1 426.5,357.0 429.4,347.7 432.2,327.6 435.1,373.8 438.0,371.4 440.9,347.4 443.8,329.6 446.6,393.7 449.5,379.1 452.4,347.2 455.3,354.4 458.2,383.0 461.0,397.1 463.9,370.7 466.8,355.3 469.7,326.8 472.6,424.6 475.4,357.4 478.3,420.6 481.2,353.5 484.1,402.8 487.0,402.3 489.8,388.1 492.7,370.1 495.6,387.3 498.5,421.1 501.4,411.2 504.2,475.4 507.1,379.2 510.0,372.9 512.9,465.1 515.8,342.3 518.6,448.6 521.5,410.5 524.4,400.3 527.3,433.5 530.2,419.2 533.0,442.2 535.9,422.8 538.8,398.2 541.7,434.3 544.6,457.1 547.4,414.8 550.3,426.3 553.2,470.0 556.1,367.2 559.0,395.4 561.8,470.5 564.7,409.3 567.6,403.2 570.5,475.9 573.4,384.8 576.2,454.2 579.1,463.9 582.0,407.5 584.9,452.6 587.8,466.2 590.6,421.8 593.5,415.7 596.4,352.4 599.3,459.7 602.2,441.7 605.0,489.4 607.9,486.4 610.8,454.1 613.7,409.3 616.6,465.1 619.4,443.3 622.3,377.2 625.2,449.4 628.1,453.1 631.0,471.6 633.8,491.2 636.7,443.0 639.6,458.0 642.5,359.5 645.4,433.8 648.2,443.3 651.1,456.7 654.0,410.1 656.9,406.5 659.8,467.1 662.6,461.6 665.5,418.7 668.4,431.6 671.3,468.4 674.2,368.7 677.0,458.0 679.9,490.1 682.8,415.9 685.7,455.0 688.6,416.1 691.4,470.5 694.3,512.2 697.2,413.3 700.1,461.1 703.0,489.4 705.8,459.6 708.7,496.3 711.6,359.2 714.5,427.3 717.4,487.6 720.2,425.2 723.1,493.4 726.0,494.1 728.9,391.4 731.8,464.8 734.6,536.5 737.5,298.5 740.4,395.9 743.3,462.7 746.2,447.7 749.0,463.9 751.9,480.3 754.8,509.2 757.7,486.7 760.6,429.1 763.4,372.1 766.3,443.0 769.2,449.7 772.1,419.1 775.0,445.9 777.8,403.6 780.7,428.6 783.6,486.2 786.5,523.6 789.4,490.9 792.2,512.8 795.1,425.1 798.0,441.1 800.9,456.8 803.8,490.1 806.6,477.2 809.5,462.7 812.4,483.9 815.3,532.3 818.2,517.5 821.0,523.9 823.9,480.9 826.8,468.2 829.7,453.4 832.6,425.3 835.4,518.8 838.3,416.8 841.2,486.0 844.1,447.0 847.0,484.0 849.8,483.1 852.7,523.1 855.6,505.4 858.5,456.7 861.4,497.8 864.2,483.9 867.1,517.9 870.0,454.5 872.9,482.0 875.8,505.1 878.6,393.3 881.5,492.1 884.4,404.2 887.3,522.2 890.2,500.3 893.0,314.6 895.9,535.3 898.8,488.4 901.7,518.4 904.6,473.4 907.4,456.5 910.3,494.1 913.2,410.4 916.1,531.0 919.0,497.8 921.8,410.9 924.7,505.4 927.6,475.8 930.5,441.3 933.4,525.5 936.2,501.1 939.1,388.3 942.0,415.3 944.9,494.5 947.8,478.8 950.6,458.7 953.5,500.2 956.4,467.6 959.3,488.9 962.2,429.1 965.0,482.0 967.9,433.5 970.8,487.7 973.7,495.6 976.6,420.8 979.4,552.4 982.3,462.8 985.2,495.7 988.1,526.5 991.0,497.0 993.8,470.4 996.7,432.2 999.6,439.6 1002.5,499.1 1005.4,436.4 1008.2,504.6 1011.1,527.9 1014.0,407.3 1016.9,546.2 1019.8,568.6 1022.6,492.7 1025.5,469.1 1028.4,517.9 1031.3,544.8 1034.2,498.9 1037.0,533.9 1039.9,513.4 1042.8,480.9 1045.7,482.9 1048.6,550.0 1051.4,486.2 1054.3,445.6 1057.2,490.5 1060.1,502.5 1063.0,526.4 1065.8,508.8 1068.7,499.6 1071.6,481.6 1074.5,550.6 1077.4,501.3 1080.2,541.8 1083.1,531.1 1086.0,426.8 1088.9,542.9 1091.8,489.6 1094.6,556.6 1097.5,444.9 1100.4,498.7 1103.3,487.3 1106.2,485.7 1109.0,546.7 1111.9,526.1 1114.8,532.6 1117.7,483.6 1120.6,479.3 1123.4,554.7 1126.3,476.6 1129.2,468.3 1132.1,543.7 1135.0,526.2 1137.8,483.1 1140.7,545.6 1143.6,464.2 1146.5,506.7 1149.4,488.2 1152.2,490.6 1155.1,576.5 1158.0,545.8 1160.9,485.0 1163.8,547.3 1166.6,488.4 1169.5,561.4 1172.4,507.3 1175.3,543.8 1178.2,546.8 1181.0,511.8 1183.9,502.1 1186.8,411.2 1189.7,529.9 1192.6,488.3 1195.4,499.2 1198.3,505.8 1201.2,529.3 1204.1,464.9 1207.0,521.6 1209.8,384.0 1212.7,540.6 1215.6,538.5 1218.5,514.7 1221.4,520.8 1224.2,530.0 1227.1,480.3 1230.0,507.8" fill="none" stroke="#1F4E79" stroke-width="3.2"/>
<circle cx="152.9" cy="182.5" r="4" fill="#1F4E79" stroke="#FFFFFF" stroke-width="1.2"/>
<circle cx="184.6" cy="257.2" r="4" fill="#1F4E79" stroke="#FFFFFF" stroke-width="1.2"/>
<circle cx="216.2" cy="253.6" r="4" fill="#1F4E79" stroke="#FFFFFF" stroke-width="1.2"/>
<circle cx="247.9" cy="290.5" r="4" fill="#1F4E79" stroke="#FFFFFF" stroke-width="1.2"/>
<circle cx="279.6" cy="320.1" r="4" fill="#1F4E79" stroke="#FFFFFF" stroke-width="1.2"/>
<circle cx="311.3" cy="373.2" r="4" fill="#1F4E79" stroke="#FFFFFF" stroke-width="1.2"/>
<circle cx="343.0" cy="361.7" r="4" fill="#1F4E79" stroke="#FFFFFF" stroke-width="1.2"/>
<circle cx="374.6" cy="287.5" r="4" fill="#1F4E79" stroke="#FFFFFF" stroke-width="1.2"/>
<circle cx="406.3" cy="337.5" r="4" fill="#1F4E79" stroke="#FFFFFF" stroke-width="1.2"/>
<circle cx="438.0" cy="371.4" r="4" fill="#1F4E79" stroke="#FFFFFF" stroke-width="1.2"/>
<circle cx="469.7" cy="326.8" r="4" fill="#1F4E79" stroke="#FFFFFF" stroke-width="1.2"/>
<circle cx="501.4" cy="411.2" r="4" fill="#1F4E79" stroke="#FFFFFF" stroke-width="1.2"/>
<circle cx="533.0" cy="442.2" r="4" fill="#1F4E79" stroke="#FFFFFF" stroke-width="1.2"/>
<circle cx="564.7" cy="409.3" r="4" fill="#1F4E79" stroke="#FFFFFF" stroke-width="1.2"/>
<circle cx="596.4" cy="352.4" r="4" fill="#1F4E79" stroke="#FFFFFF" stroke-width="1.2"/>
<circle cx="628.1" cy="453.1" r="4" fill="#1F4E79" stroke="#FFFFFF" stroke-width="1.2"/>
<circle cx="659.8" cy="467.1" r="4" fill="#1F4E79" stroke="#FFFFFF" stroke-width="1.2"/>
<circle cx="691.4" cy="470.5" r="4" fill="#1F4E79" stroke="#FFFFFF" stroke-width="1.2"/>
<circle cx="723.1" cy="493.4" r="4" fill="#1F4E79" stroke="#FFFFFF" stroke-width="1.2"/>
<circle cx="754.8" cy="509.2" r="4" fill="#1F4E79" stroke="#FFFFFF" stroke-width="1.2"/>
<circle cx="786.5" cy="523.6" r="4" fill="#1F4E79" stroke="#FFFFFF" stroke-width="1.2"/>
<circle cx="818.2" cy="517.5" r="4" fill="#1F4E79" stroke="#FFFFFF" stroke-width="1.2"/>
<circle cx="849.8" cy="483.1" r="4" fill="#1F4E79" stroke="#FFFFFF" stroke-width="1.2"/>
<circle cx="881.5" cy="492.1" r="4" fill="#1F4E79" stroke="#FFFFFF" stroke-width="1.2"/>
<circle cx="913.2" cy="410.4" r="4" fill="#1F4E79" stroke="#FFFFFF" stroke-width="1.2"/>
<circle cx="944.9" cy="494.5" r="4" fill="#1F4E79" stroke="#FFFFFF" stroke-width="1.2"/>
<circle cx="976.6" cy="420.8" r="4" fill="#1F4E79" stroke="#FFFFFF" stroke-width="1.2"/>
<circle cx="1008.2" cy="504.6" r="4" fill="#1F4E79" stroke="#FFFFFF" stroke-width="1.2"/>
<circle cx="1039.9" cy="513.4" r="4" fill="#1F4E79" stroke="#FFFFFF" stroke-width="1.2"/>
<circle cx="1071.6" cy="481.6" r="4" fill="#1F4E79" stroke="#FFFFFF" stroke-width="1.2"/>
<circle cx="1103.3" cy="487.3" r="4" fill="#1F4E79" stroke="#FFFFFF" stroke-width="1.2"/>
<circle cx="1135.0" cy="526.2" r="4" fill="#1F4E79" stroke="#FFFFFF" stroke-width="1.2"/>
<circle cx="1166.6" cy="488.4" r="4" fill="#1F4E79" stroke="#FFFFFF" stroke-width="1.2"/>
<circle cx="1198.3" cy="505.8" r="4" fill="#1F4E79" stroke="#FFFFFF" stroke-width="1.2"/>
<circle cx="1230.0" cy="507.8" r="4" fill="#1F4E79" stroke="#FFFFFF" stroke-width="1.2"/>
<line x1="1014.0" y1="140" x2="1014.0" y2="610" stroke="#EF4444" stroke-width="2" stroke-dasharray="8 7"/>
<text x="1026.0" y="132" class="note">Epoch terbaik model 4</text>
<text x="690.0" y="695" text-anchor="middle" class="axislabel">Epoch</text>
<text x="55" y="375.0" transform="rotate(-90 55,375.0)" text-anchor="middle" class="axislabel">Training Loss</text>
<text x="1230" y="732" text-anchor="end" class="source">Sumber: models/indobenchmark/indobert-base-p2_15k/checkpoint-7500/trainer_state.json</text>
</svg>